<?xml version="1.0" encoding="UTF-8" standalone="no"?>
<!-- Created with Inkscape (http://www.inkscape.org/) -->

<svg
   xmlns:dc="http://purl.org/dc/elements/1.1/"
   xmlns:cc="http://creativecommons.org/ns#"
   xmlns:rdf="http://www.w3.org/1999/02/22-rdf-syntax-ns#"
   xmlns:svg="http://www.w3.org/2000/svg"
   xmlns="http://www.w3.org/2000/svg"
   xmlns:sodipodi="http://sodipodi.sourceforge.net/DTD/sodipodi-0.dtd"
   xmlns:inkscape="http://www.inkscape.org/namespaces/inkscape"
   width="1052.3622"
   height="744.09448"
   id="svg5433"
   version="1.1"
   inkscape:version="0.48.3.1 r9886"
   sodipodi:docname="browserify.svg">
  <defs
     id="defs5435">
    <inkscape:perspective
       id="perspective2643"
       inkscape:persp3d-origin="372.04724 : 350.78739 : 1"
       inkscape:vp_z="744.09448 : 526.18109 : 1"
       inkscape:vp_y="0 : 1000 : 0"
       inkscape:vp_x="0 : 526.18109 : 1"
       sodipodi:type="inkscape:persp3d" />
  </defs>
  <sodipodi:namedview
     id="base"
     pagecolor="#4f481f"
     bordercolor="#666666"
     borderopacity="1.0"
     inkscape:pageopacity="1"
     inkscape:pageshadow="2"
     inkscape:zoom="0.58534981"
     inkscape:cx="864.44036"
     inkscape:cy="399.97523"
     inkscape:document-units="px"
     inkscape:current-layer="layer1"
     showgrid="false"
     inkscape:window-width="1364"
     inkscape:window-height="766"
     inkscape:window-x="0"
     inkscape:window-y="0"
     inkscape:window-maximized="0" />
  <metadata
     id="metadata5438">
    <rdf:RDF>
      <cc:Work
         rdf:about="">
        <dc:format>image/svg+xml</dc:format>
        <dc:type
           rdf:resource="http://purl.org/dc/dcmitype/StillImage" />
        <dc:title></dc:title>
      </cc:Work>
    </rdf:RDF>
  </metadata>
  <g
     inkscape:label="Layer 1"
     inkscape:groupmode="layer"
     id="layer1"
     transform="translate(0,-308.2677)">
    <g
       id="layer1-8"
       inkscape:label="Layer 1"
       transform="matrix(1.3985356,0,0,1.3985356,-119.36008,15.369186)">
      <path
         id="path2645"
         d="m 147.92295,249.81284 c -1.00675,-0.007 -1.99284,0.0607 -2.91051,0.17716 -2.67513,0.33925 -5.95531,2.28048 -7.71918,3.41669 -0.9878,0.6363 -5.53859,4.59647 -0.65803,3.03705 l -2.25248,0.73395 c -1.30488,1.82308 0.17936,5.38671 0.70864,8.40252 0.637,3.62958 1.26515,7.24297 1.87285,10.70561 0.44598,2.5411 1.2717,4.7465 1.69569,7.16239 0.39054,2.22517 1.0698,4.11475 1.79693,5.87164 1.0699,2.58513 0.90571,2.36665 3.87224,1.13889 1.94584,-0.80529 3.93286,-0.88385 6.25127,-1.29075 2.96064,-0.51961 5.03816,-0.009 7.61794,-1.67038 2.52554,-1.62682 3.62103,-3.45296 5.26423,-5.79571 1.11722,-1.59284 1.22503,-4.94981 1.36667,-6.9346 0.18462,-2.58681 -3.32941,-3.90957 -4.53027,-4.3025 -2.64522,-0.86552 -4.76008,-0.005 -2.05001,-2.35371 1.80163,-1.5616 2.45374,-3.47347 2.63211,-5.97287 0.25532,-3.57742 -2.4543,-6.62464 -4.6315,-9.13647 -2.10078,-2.42369 -5.30634,-3.16683 -8.32659,-3.18891 z m -3.92286,9.33894 c 0.13284,-0.009 0.24253,0.014 0.35432,0.0506 1.58971,0.52016 4.98416,3.08549 2.73335,5.03644 -0.2196,0.19034 -4.04545,2.54673 -4.12533,2.35372 -0.74552,-1.80134 -2.28337,-5.6535 -1.31606,-6.27658 0.095,-0.0482 1.42383,-1.09828 2.35372,-1.1642 z m 3.89755,13.23649 c 0.0988,-0.0185 0.38396,0.0825 1.21482,0.35433 1.71038,0.55962 3.98704,1.91674 3.23952,4.20125 -0.3449,1.05415 -3.91505,4.97501 -4.27718,4.10003 -0.15334,-0.37053 -2.46249,-5.16173 -1.84754,-4.96053 l 1.06297,-2.58149 c 0.78962,-0.68442 0.44282,-1.08264 0.60741,-1.11359 z"
         style="fill:#fc00ff;fill-opacity:1;fill-rule:evenodd;stroke:#000000;stroke-width:0.86985219;stroke-linecap:round;stroke-linejoin:round;stroke-miterlimit:4;stroke-opacity:1;stroke-dasharray:none;stroke-dashoffset:0;marker:none;visibility:visible;display:inline;overflow:visible;enable-background:accumulate"
         inkscape:connector-curvature="0" />
      <path
         id="path2651"
         d="m 179.68547,245.05479 c -1.69412,-0.004 -3.13997,0.15825 -4.83398,0.45556 -2.01476,0.3536 -3.58743,1.06541 -5.41608,1.82223 -1.49891,0.62036 -2.32079,1.87202 -3.31545,3.29014 -0.0965,-0.0316 1.23151,7.69225 2.15125,12.93279 0.60858,3.46767 1.76631,6.95368 2.35371,10.30067 0.53034,3.02181 0.44086,4.28083 2.83459,3.29014 1.8283,-0.75668 4.40708,-1.19078 5.87164,-1.79692 1.50886,-0.62447 -0.17815,-2.95539 -0.98705,-4.9099 -0.90962,-2.1979 -1.54589,-3.98574 -1.79692,-5.41608 -0.38725,-2.20649 4.44974,-0.47326 6.65621,-0.8605 1.27016,-0.22291 2.02926,3.36056 2.73335,5.06175 0.96148,2.32319 2.16327,2.41658 4.25187,2.05002 2.1899,-0.38433 3.59578,-0.63029 5.34016,-0.93643 2.93118,-0.51444 -0.26579,-2.68783 -1.46791,-4.07471 -1.73522,-2.00192 -2.36768,-4.14795 -3.54323,-5.97288 -1.13547,-1.76273 2.88778,-3.42582 3.03705,-5.51731 0.19559,-2.7407 -1.14527,-4.71413 -3.06236,-6.37781 -2.48746,-2.15866 -5.7848,-3.05998 -9.00993,-3.29014 -0.6349,-0.0453 -1.23222,-0.0493 -1.79692,-0.0506 z m -1.03766,6.98522 c 1.20489,-0.05 2.28705,0.28833 2.73335,1.36668 0.84592,2.04395 0.7366,2.24661 -1.1389,3.87224 -0.38829,0.33656 -4.49499,2.8179 -4.58089,2.32841 -0.31163,-1.77567 -1.38943,-6.22346 -0.40494,-6.6309 0.8693,-0.44068 2.18649,-0.88647 3.39138,-0.93643 z"
         style="fill:#fc00ff;fill-opacity:1;fill-rule:evenodd;stroke:#000000;stroke-width:0.86985219;stroke-linecap:round;stroke-linejoin:round;stroke-miterlimit:4;stroke-opacity:1;stroke-dasharray:none;stroke-dashoffset:0;marker:none;visibility:visible;display:inline;overflow:visible;enable-background:accumulate"
         inkscape:connector-curvature="0" />
      <path
         id="path2657"
         d="m 208.05661,242.54922 c -1.84245,0.0424 -3.9355,1.84983 -5.94756,3.59385 -2.17805,1.88785 -3.41516,4.80999 -3.61916,7.66856 -0.28694,4.02069 -0.84754,5.6505 0.65803,9.28832 1.33294,3.22067 3.95327,5.37734 7.03584,6.22596 3.19931,0.88076 6.4158,0.062 8.90869,-1.54384 2.50118,-1.61116 4.3756,-3.07986 5.26423,-5.79571 1.02134,-3.12139 -0.0105,-7.22616 -1.06297,-9.76919 -1.01222,-2.44577 -2.39302,-4.18642 -3.56854,-5.54262 -1.44074,-1.66224 -3.26676,-2.76156 -5.92225,-3.49261 -0.54328,-0.44271 -1.13216,-0.64687 -1.74631,-0.63272 z m -1.11358,7.44078 c 0.29985,-0.0454 0.6375,0.099 1.01235,0.53148 1.90281,2.19529 2.90044,2.79584 2.70804,5.49201 -0.10961,1.53584 -0.68044,4.35682 -2.50557,4.22657 -1.43837,-0.10266 -2.83157,-0.7277 -3.29014,-3.34076 -0.0942,-0.53654 0.45614,-6.66378 2.07532,-6.9093 z"
         style="fill:#fc00ff;fill-opacity:1;fill-rule:evenodd;stroke:#000000;stroke-width:0.86985219;stroke-linecap:round;stroke-linejoin:round;stroke-miterlimit:4;stroke-opacity:1;stroke-dasharray:none;stroke-dashoffset:0;marker:none;visibility:visible;display:inline;overflow:visible;enable-background:accumulate"
         inkscape:connector-curvature="0" />
      <path
         id="path2661"
         d="m 224.45927,241.5724 c 0.22934,-3.21368 -1.24498,6.46766 -0.68804,9.64098 0.77729,4.42895 1.44602,8.85571 2.16062,12.92752 0.45508,2.59299 2.38418,0.61061 4.78923,0.78224 3.00339,0.21434 2.41344,-3.94952 3.0672,-5.94753 1.02419,-3.1301 0.94427,-0.2874 2.03477,2.34752 0.84988,2.05352 2.7473,3.77819 3.60003,5.10196 1.13548,1.76275 4.1375,-1.0261 6.229,-0.87684 0.71173,0.0508 1.51617,-8.90134 1.59577,-10.01667 0.28682,-4.01908 1.02214,-8.15085 1.3139,-12.23908 0.13808,-1.93483 -2.99846,-2.43862 -4.63284,-2.9734 -3.13692,-1.0264 -3.47278,-0.71327 -3.69347,2.37918 -0.21817,3.05701 -0.24358,6.00922 0.25097,8.82708 0.67144,3.82585 -2.13122,-3.10803 -2.31663,-4.56992 -0.41987,-3.31066 -1.21916,-4.93205 -4.47647,-5.16451 -1.52122,-0.10857 -1.54469,3.12905 -1.6587,4.72667 -0.25517,3.57562 -1.1447,3.69602 -0.87647,-0.0625 0.15857,-2.22181 -0.42059,-5.12662 -0.87683,-6.229 -0.15263,-0.36879 -5.62461,-1.5056 -1.81545,0.75135"
         style="fill:#fc00ff;fill-opacity:1;fill-rule:evenodd;stroke:#000000;stroke-width:0.86985219;stroke-linecap:round;stroke-linejoin:round;stroke-miterlimit:4;stroke-opacity:1;stroke-dasharray:none;stroke-dashoffset:0;marker:none;visibility:visible;display:inline;overflow:visible;enable-background:accumulate"
         inkscape:connector-curvature="0" />
      <path
         id="path2663"
         d="m 263.6804,241.28823 c -0.55892,-1.35047 -6.85845,-0.69351 -7.88809,-0.56294 -2.83731,0.35984 -2.53546,2.60821 -1.65868,4.72667 1.17095,2.82931 3.02506,5.18297 4.72704,7.82516 1.69602,2.63293 2.15837,4.28469 2.59848,6.79233 0.39902,2.27369 -4.8506,1.85614 -6.29157,1.7533 -2.7313,-0.19492 -3.87636,-2.3616 -3.19268,1.53398 0.54433,3.10151 -0.22275,3.17846 2.78613,4.16296 2.59805,0.8501 5.49783,0.83282 8.29504,1.03244 2.83048,0.202 4.55364,-1.06915 6.35408,-2.62974 1.70263,-1.47579 1.62214,-4.21411 1.78382,-6.47958 0.1845,-2.58531 -2.05859,-5.22085 -3.47492,-6.85487 -1.69395,-1.9543 -4.03187,-4.17726 -4.50777,-4.7263 -1.37335,-1.58444 5.73534,-0.1313 5.88461,-2.22279 0.17497,-2.4518 -1.13288,-4.48544 -3.19308,-4.63247 -0.74484,-0.0531 -1.48161,0.1879 -2.22241,0.28185 z"
         style="fill:#fc00ff;fill-opacity:1;fill-rule:evenodd;stroke:#000000;stroke-width:0.86985219;stroke-linecap:round;stroke-linejoin:round;stroke-miterlimit:4;stroke-opacity:1;stroke-dasharray:none;stroke-dashoffset:0;marker:none;visibility:visible;display:inline;overflow:visible;enable-background:accumulate"
         inkscape:connector-curvature="0" />
      <path
         id="path2665"
         d="m 278.95581,243.2593 c -2.50816,-0.179 -3.69453,14.73775 -3.8178,16.46498 -0.22934,3.21367 -0.45869,6.42734 -0.68803,9.64101 -0.0288,0.40397 7.43517,0.0901 8.35759,0.15597 2.9624,0.21142 5.52226,0.83457 8.29504,1.03245 2.17157,0.15497 -0.92076,-4.27994 -1.7533,-6.29155 -0.63168,-1.52632 -2.54946,-2.29169 -4.63285,-2.97338 -2.83942,-0.92908 -3.45738,-0.92887 -3.22436,-4.19424 0.21128,-2.96045 1.55052,-2.74401 4.10042,-1.90967 3.07064,1.00473 2.72602,-1.16668 2.94212,-4.19463 0.18747,-2.62676 -2.47678,-2.26791 -4.63287,-2.97338 -2.02086,-0.66124 3.11622,-2.42037 4.1317,-2.34788 2.5792,0.18406 3.42391,1.39804 3.63092,-1.50273 0.27143,-3.80326 1.94212,-4.63394 -1.78457,-5.85332 -2.35047,-0.76908 -5.14564,-0.67464 -7.38731,-1.40812 -2.65175,-0.86767 -3.94015,0.0493 -4.53864,1.87839 -1.122,3.42905 -1.34119,4.30888 1.00194,4.4761 z"
         style="fill:#fc00ff;fill-opacity:1;fill-rule:evenodd;stroke:#000000;stroke-width:0.86985219;stroke-linecap:round;stroke-linejoin:round;stroke-miterlimit:4;stroke-opacity:1;stroke-dasharray:none;stroke-dashoffset:0;marker:none;visibility:visible;display:inline;overflow:visible;enable-background:accumulate"
         inkscape:connector-curvature="0" />
      <path
         id="path2667"
         d="m 300.61083,242.16959 c -1.18318,0.0629 -1.55174,0.10178 -1.92347,0.12654 l 2.37902,-0.10123 c -0.14607,-0.0105 -0.30932,-0.0331 -0.45555,-0.0253 z m -2.53088,0.15185 -1.01235,0.0253 c -0.94988,2.90301 -0.27302,10.171 -0.58211,14.50193 -0.27207,3.81234 0.29328,8.42532 0.91112,11.94574 0.49501,2.82054 1.8366,1.4637 4.73274,1.67038 3.43119,0.24487 3.49743,-0.4269 2.91051,-3.771 -0.46923,-2.67366 -1.29155,-5.17164 -2.12593,-7.1877 -0.24399,-0.58947 5.71426,0.39556 6.55497,0.45556 2.12315,0.15152 1.43006,5.07433 1.721,6.73214 0.49098,2.79761 -0.62939,3.4985 2.83458,3.7457 2.87683,0.20532 5.40244,0.30684 7.06115,-0.37964 0.22824,-0.0944 -3.34732,-8.29998 -3.7457,-9.08585 -0.43199,-0.85219 2.77614,-1.59258 4.15064,-2.78396 2.13549,-1.85099 2.19516,-5.25365 1.87285,-7.79511 -0.42818,-3.37623 -4.91125,-5.41532 -7.46609,-6.25127 -3.82374,-1.25113 -7.68587,-1.42963 -11.76858,-1.721 -2.39596,-0.17099 -6.68693,-0.0377 -6.0488,-0.10123 z m 4.20126,6.12472 c 3.36137,0.27027 0.90343,0.51115 2.25248,0.60742 1.48227,0.10577 4.34465,0.85092 4.22656,2.50557 -0.0808,1.13282 -2.39101,4.07115 -4.60619,2.75865 -1.69118,-1.00205 -0.32499,-5.41811 -1.87285,-5.87164 z"
         style="fill:#fc00ff;fill-opacity:1;fill-rule:evenodd;stroke:#000000;stroke-width:0.86985219;stroke-linecap:round;stroke-linejoin:round;stroke-miterlimit:4;stroke-opacity:1;stroke-dasharray:none;stroke-dashoffset:0;marker:none;visibility:visible;display:inline;overflow:visible;enable-background:accumulate"
         inkscape:connector-curvature="0" />
      <path
         id="path2671"
         d="m 333.79713,252.45861 c -0.17603,-0.0126 -2.30504,9.67147 -2.50348,10.39235 -1.09629,3.98221 -2.27143,7.14026 -2.56606,11.26881 -0.1369,1.91829 3.80083,2.02844 5.54058,2.5977 3.55613,1.16359 3.89465,2.46571 3.1927,-1.53398 -0.59365,-3.38249 0.322,-9.5503 1.34517,-12.67732 0.69688,-2.12977 1.20203,-4.86304 0.90735,-6.54213 -0.35169,-2.00396 1.54744,-3.41324 -1.94095,-3.66219 -1.50003,-0.10705 -2.34837,-0.0496 -3.97531,0.15676 z"
         style="fill:#fc00ff;fill-opacity:1;fill-rule:evenodd;stroke:#000000;stroke-width:0.86985219;stroke-linecap:round;stroke-linejoin:round;stroke-miterlimit:4;stroke-opacity:1;stroke-dasharray:none;stroke-dashoffset:0;marker:none;visibility:visible;display:inline;overflow:visible;enable-background:accumulate"
         inkscape:connector-curvature="0" />
      <path
         id="path2677"
         d="m 353.42353,255.18064 c -2.38192,1.59483 -3.87928,7.0605 -5.60237,10.61167 -0.34425,0.70952 -0.68853,1.41905 -1.03282,2.12858 -1.44881,2.98592 -2.38003,6.93119 -3.34867,9.89158 -0.92997,2.84218 0.19426,3.53754 3.25562,3.75601 3.17151,0.22634 2.66981,-0.37925 2.9421,-4.19462 0.22,-3.08259 0.38568,-5.25799 2.56643,-5.10236 2.92373,0.20866 8.32629,3.33475 10.67422,4.7259 2.04931,1.21425 1.72541,-5.6615 1.81507,-6.9178 0.19129,-2.68038 -1.70561,-2.60924 -3.69385,-3.78728 -2.17496,-1.28868 -4.95332,-1.06018 -7.35603,-1.84636 -0.46026,-0.15059 1.92986,-3.82641 3.78728,-3.69386 3.20351,0.22863 6.0638,1.95236 8.54562,3.69309 2.82261,1.97978 2.05904,-4.16436 2.22204,-6.4483 0.20111,-2.81822 -4.06423,-3.37327 -7.23096,-3.59926 -4.85838,-0.34672 -8.46117,-2.0885 -7.54368,0.78301 z"
         style="fill:#fc00ff;fill-opacity:1;fill-rule:evenodd;stroke:#000000;stroke-width:0.86985219;stroke-linecap:round;stroke-linejoin:round;stroke-miterlimit:4;stroke-opacity:1;stroke-dasharray:none;stroke-dashoffset:0;marker:none;visibility:visible;display:inline;overflow:visible;enable-background:accumulate"
         inkscape:connector-curvature="0" />
      <path
         id="path2679"
         d="m 373.39433,259.24864 c -0.15922,-0.0113 2.22985,5.92484 3.16219,11.23715 0.32126,1.83056 -1.81511,4.6052 -3.12975,6.82398 -1.40162,2.36555 -2.45211,4.75295 -3.12977,6.82398 -0.20194,0.61717 4.92232,2.33814 5.97881,2.629 2.88438,0.79405 2.90167,-1.86866 4.82012,-5.82246 1.54736,-3.18899 1.49877,-6.64591 4.47571,-7.16838 2.78652,-0.48905 4.77423,-0.32638 7.57496,-1.22123 3.19241,-1.02003 6.21674,-2.47148 7.79388,-4.28883 0.5338,-0.61513 -3.16978,-2.60678 -4.19462,-2.94212 -3.17353,-1.03838 -2.13917,-2.94223 -6.07264,-1.31429 -2.84169,1.17608 -5.05754,2.73108 -6.85488,3.47492 -0.31041,0.12846 -1.46479,-4.64776 -1.75329,-6.29156 -0.3154,-1.79713 -1.81798,-4.90647 -1.84712,-4.97686 -0.83224,-2.01089 -6.5831,2.6938 -6.8236,3.0367 z"
         style="fill:#fc00ff;fill-opacity:1;fill-rule:evenodd;stroke:#000000;stroke-width:0.86985219;stroke-linecap:round;stroke-linejoin:round;stroke-miterlimit:4;stroke-opacity:1;stroke-dasharray:none;stroke-dashoffset:0;marker:none;visibility:visible;display:inline;overflow:visible;enable-background:accumulate"
         inkscape:connector-curvature="0" />
      <path
         id="path2681"
         d="m 405.1988,288.82686 c -1.60028,-3.86671 -4.72419,2.57701 -5.0707,3.16179 -1.05715,1.78421 2.08148,3.23176 3.72513,3.34906 2.28985,0.16342 3.99916,-0.49091 4.19424,-3.22434 0.14355,-2.01157 -1.02407,-2.40118 -2.84867,-3.28651 z"
         style="fill:#fc00ff;fill-opacity:1;fill-rule:evenodd;stroke:#000000;stroke-width:0.86985219;stroke-linecap:round;stroke-linejoin:round;stroke-miterlimit:4;stroke-opacity:1;stroke-dasharray:none;stroke-dashoffset:0;marker:none;visibility:visible;display:inline;overflow:visible;enable-background:accumulate"
         inkscape:connector-curvature="0" />
      <path
         id="path2683"
         d="m 404.66599,277.77736 c 0.27037,-3.78849 2.37263,-8.44067 3.912,-11.61322 1.67581,-3.45371 1.96424,-5.40262 3.09848,-6.38576 0.10122,-0.0877 5.32228,2.97473 5.50931,3.03593 2.8183,0.92216 -2.15023,5.55626 -3.6618,8.1074 -1.59094,2.68506 -2.92621,6.20187 -3.69309,8.54562 -0.81798,2.49991 -1.85426,1.64188 -3.56837,0.62625 -0.80674,-0.47799 -1.08873,-1.5279 -1.59653,-2.31622 z"
         style="fill:#fc00ff;fill-opacity:1;fill-rule:evenodd;stroke:#000000;stroke-width:0.86985219;stroke-linecap:round;stroke-linejoin:round;stroke-miterlimit:4;stroke-opacity:1;stroke-dasharray:none;stroke-dashoffset:0;marker:none;visibility:visible;display:inline;overflow:visible;enable-background:accumulate"
         inkscape:connector-curvature="0" />
      <path
         sodipodi:nodetypes="csssssssssssscssssssssssssc"
         id="path2685"
         d="m 338.50678,511.81428 c 0,-4.24383 0.8181,-7.81161 0.8181,-12.27155 0,-7.0922 -1.56009,-13.60332 -3.27241,-20.45259 -1.88918,-7.5567 -6.25706,-15.78652 -9.81724,-22.90689 -3.11059,-6.22117 -5.35503,-12.34625 -8.18103,-17.99828 -2.54547,-5.09092 -5.46728,-9.55778 -9.81724,-13.90775 -4.75404,-4.75403 -9.15086,-9.15085 -13.90777,-13.90775 -3.29955,-3.29956 -4.98003,-6.68767 -6.54482,-9.81724 -1.73868,-3.47737 -5.58459,-6.4027 -8.18103,-8.99914 -2.27098,-2.27098 -6.67015,-3.91732 -10.63534,-4.90863 -4.16648,-1.04162 -7.59983,-0.8181 -12.27155,-0.8181 -4.48619,0 -7.13206,-2.22343 -8.99914,-4.09051 -0.19284,-0.19284 -0.54541,0 -0.8181,0 -7.83092,0 0.43891,5.22114 -4.09053,-0.8181 -4.0545,-2.02726 -10.47934,6.60952 -12.27154,8.99913 -3.45515,4.60686 -7.33456,8.6886 -10.63535,13.08966 -2.8453,3.79373 -5.57917,7.21537 -8.18103,9.81724 -1.65563,1.65562 -2.52301,6.00147 -3.27241,8.99913 -0.75185,3.00738 -3.13848,6.82716 -4.09053,10.63535 -1.15416,4.6167 -2.98335,8.66103 -4.09051,13.08965 -1.12663,4.50649 -2.20858,8.83431 -3.27241,13.08965 -1.04104,4.16414 -1.42275,8.14528 -2.45432,12.27156 -0.89731,3.58927 -1.6362,5.39398 -1.6362,9.81724 0,3.7533 -0.8181,8.21026 -0.8181,12.27155 0,3.56425 -1.63621,6.18652 -1.63621,10.63534 0,4.37868 0.95025,7.07342 1.63621,9.81724 1.19729,4.78917 2.71436,5.80076 5.72672,9.81724 -0.0123,1.23883 -0.0247,2.47767 -0.0371,3.7165 -0.052,5.21253 0.80988,9.35215 0.80988,14.57786 0,3.71558 -0.80988,8.12776 -0.80988,12.14822 0,2.90937 -2.1655,7.57053 -3.23953,9.71857 -1.28982,2.57965 -1.91898,6.26761 -3.23952,8.90869 -1.51748,3.03496 -1.6161,6.4937 -0.80988,9.71857 0.0492,0.19647 -2.8027,6.35152 -3.23953,8.09881 -1.2469,4.98762 1.77332,2.75781 5.66917,0.80988 3.46491,-1.73245 6.83289,-3.32799 9.71857,-4.0494 3.65688,-0.91422 7.70974,-0.71262 11.33834,-1.61977 4.09726,-1.02431 8.67983,0.95515 11.33833,1.61977 4.40667,1.10167 8.92647,2.03359 12.9581,4.0494 3.78591,1.89296 8.33943,2.14502 12.14821,4.04941 5.40653,2.70327 15.74151,2.42964 21.86679,2.42964 6.49426,0 12.1096,-2.62246 17.81738,-4.04941 4.19799,-1.04949 10.35054,-3.97824 14.57786,-5.66916 5.58009,-2.23203 12.94497,-0.9666 18.62726,-3.23953 4.93689,-1.97475 7.741,-2.61815 8.90869,-7.28893 0.82671,-3.30684 0,-7.91338 0,-11.33833 0,-4.73648 -0.80988,-8.38742 -0.80988,-12.9581 0,-4.20683 -0.12585,-8.40528 0.80988,-12.14821 0.99271,-3.97085 0.80988,-7.20708 0.80988,-11.33833 0,-3.32184 1.58116,-7.13451 2.42965,-10.52846 0.11288,-0.45153 2.68623,-6.05513 3.07107,-7.07114 z"
         style="fill:#a89ba8;fill-opacity:1;fill-rule:evenodd;stroke:#000000;stroke-width:1.61976206;stroke-linecap:round;stroke-linejoin:round;stroke-miterlimit:4;stroke-opacity:1;stroke-dasharray:none;stroke-dashoffset:0;marker:none;visibility:visible;display:inline;overflow:visible;enable-background:accumulate"
         inkscape:connector-curvature="0" />
      <path
         sodipodi:nodetypes="cssssssssssssssssssss"
         id="path2687"
         d="m 205.97404,421.00481 c -4.6665,0 -12.79812,10.34381 -15.54397,13.08965 -6.43462,6.43462 -11.02012,14.29254 -17.18017,20.45259 -5.65381,5.6538 -9.02747,15.58174 -13.90776,22.08878 -4.52183,6.02911 -7.50466,7.11175 -8.99913,13.08966 -1.00789,4.03155 -0.25568,6.34021 0.8181,10.63535 1.11219,4.44874 8.15085,8.16594 11.45344,9.81724 5.6329,2.81644 11.8087,4.90861 18.81638,4.90861 6.29778,0 12.88086,3.27241 19.63448,3.27241 7.84158,0 17.34871,-2.84895 24.54311,-5.72671 6.84666,-2.73867 12.68392,-6.1391 17.99827,-11.45345 3.07591,-3.07592 5.27707,-4.58179 7.36293,-7.36293 1.88955,-2.51941 1.6362,-8.88496 1.6362,-12.27155 0,-5.0147 -2.16158,-8.64634 -3.27241,-13.08966 -1.22168,-4.88672 -3.37357,-5.82788 -5.72672,-8.18103 -2.8582,-2.8582 -9.84479,-1.62932 -13.08965,-0.8181 -4.85648,1.21412 -9.2002,3.11815 -13.08966,4.09051 -3.50687,0.87672 -7.11151,1.49454 -9.81724,0.81811 -2.41521,-0.60381 -4.09052,-4.14952 -4.09052,-7.36294 0,-2.727 0,-5.45402 0,-8.18103 0,-2.18161 5.0022,1.54263 6.54483,0"
         style="fill:#a89ba8;fill-opacity:1;fill-rule:evenodd;stroke:#000000;stroke-width:1.61976206;stroke-linecap:round;stroke-linejoin:round;stroke-miterlimit:4;stroke-opacity:1;stroke-dasharray:none;stroke-dashoffset:0;marker:none;visibility:visible;display:inline;overflow:visible;enable-background:accumulate"
         inkscape:connector-curvature="0" />
      <path
         id="path2695"
         d="m 280.42144,400.55223 c 4.77254,5.90992 11.46715,7.98678 17.18017,12.27155 7.14791,5.36093 14.43224,10.13192 22.08879,14.72585 7.18886,4.31332 13.23134,8.36995 17.99828,14.72587 2.58506,3.44675 6.2085,4.62001 10.63534,5.72672 3.86995,0.96749 6.57023,2.45431 11.45345,2.45431 8.18103,0 16.36207,0 24.54309,0 7.15488,0 15.49521,-0.83029 22.0888,0.81811 4.78557,1.19638 4.86345,2.40913 7.36293,4.90861 2.50381,2.50381 1.49791,10.37042 0.8181,13.08966 -1.13534,4.54135 0,10.80233 0,15.54396 0,5.57684 -3.36163,4.90862 -9.81724,4.90862 -13.00209,0 -26.12018,1.63621 -39.26896,1.63621 -9.64084,0 -18.89959,0.8181 -28.63361,0.8181 -4.67643,0 -6.91189,1.00163 -9.81724,2.45431 -3.53489,1.76744 -8.56863,-1.42094 -10.63535,-2.45431 -3.27617,-1.63809 -6.71166,-9.98407 -9.81724,-13.08966 -3.2909,-3.29089 -7.02645,-10.78047 -8.99914,-14.72585 -2.25917,-4.51834 -0.40273,3.29769 0,4.90862"
         style="fill:#a89ba8;fill-opacity:1;fill-rule:evenodd;stroke:#000000;stroke-width:1.61976206;stroke-linecap:round;stroke-linejoin:round;stroke-miterlimit:4;stroke-opacity:1;stroke-dasharray:none;stroke-dashoffset:0;marker:none;visibility:visible;display:inline;overflow:visible;enable-background:accumulate"
         inkscape:connector-curvature="0" />
      <path
         id="path2697"
         d="m 403.95505,461.09188 c -0.42501,-0.85003 18.53557,-2.45432 22.08879,-2.45432 7.36293,0 14.72586,0 22.08879,0 4.74626,0 8.01162,1.4668 10.63535,4.09052 3.0045,3.0045 5.55813,5.05237 6.54482,8.99914 0.983,3.93198 2.98186,4.56453 4.09052,8.99914 1.03154,4.12618 -0.8181,6.8627 -0.8181,10.63534 0,5.72821 -1.0918,4.90862 -6.54483,4.90862 -3.98368,0 -7.74798,-0.70984 -11.45345,-1.63621 -4.17682,-1.0442 -6.52157,-2.44268 -9.81724,-4.09051 -1.79839,-0.8992 -4.47123,-6.10745 -5.72672,-7.36294 -2.1705,-2.1705 -5.96818,-1.57584 -8.99914,-0.8181 -5.87396,1.46849 -3.30689,3.23793 0,6.54482 4.37982,4.37983 7.06833,6.54483 0,6.54483 -4.55977,0 -7.82012,-3.00172 -11.45345,-5.72672 -3.94499,-2.95874 -7.5683,-5.18245 -9.81724,-8.18103 -2.49309,-3.32414 -3.59682,-3.75193 -4.90862,-8.99914 -1.04813,-4.19253 0.84968,-4.78231 0,-8.18103"
         style="fill:#e6d09e;fill-opacity:1;fill-rule:evenodd;stroke:#000000;stroke-width:1.61976206;stroke-linecap:round;stroke-linejoin:round;stroke-miterlimit:4;stroke-opacity:1;stroke-dasharray:none;stroke-dashoffset:0;marker:none;visibility:visible;display:inline;overflow:visible;enable-background:accumulate"
         inkscape:connector-curvature="0" />
      <path
         id="path3497"
         d="m 223.1542,398.91602 c -3.81272,-2.15184 -7.91675,-0.13215 -11.45344,1.63621 -4.60916,2.30458 -7.25144,5.28074 -8.18104,8.99913 -1.16303,4.65214 -2.30139,6.85067 0,11.45345 1.36826,2.7365 5.78976,4.97165 7.36293,6.54482 2.45662,2.45662 5.2904,5.19496 8.18104,7.36294 3.60825,2.70618 6.14992,5.12021 10.63534,7.36293 3.62637,1.81318 5.50278,3.56948 8.18104,4.90862 3.06702,1.53351 6.10695,2.64442 8.99914,4.09052 2.94753,1.47376 7.93492,0.8181 11.45344,0.8181 4.75564,0 6.81218,2.72167 10.63535,6.54482 3.55732,3.55733 4.58147,6.70865 6.54482,10.63535 1.65621,3.31242 1.55106,8.65853 2.45431,12.27155 1.50329,6.01316 0.16039,12.9131 1.63621,18.81638 1.57255,6.29023 -1.08395,12.51684 -2.45431,17.99827 -1.53293,6.13171 -7.0654,11.15592 -11.45345,15.54397 -0.8181,0.8181 -1.63621,1.6362 -2.45431,2.4543 -3.11427,3.11427 -5.92617,7.76184 -7.36293,10.63535 -1.3286,2.6572 -3.24004,4.02577 -4.90862,7.36293 -1.83047,3.66094 -5.42545,7.77934 -8.18104,11.45344 -2.62749,3.50334 -3.9215,5.86876 -4.90861,9.81725 -1.04488,4.1795 1.57143,7.92193 2.45431,11.45344 1.19653,4.78612 4.44637,10.52896 6.54483,14.72587 1.37977,2.75954 3.78528,5.16505 6.54482,6.54482 3.25419,1.62709 -0.11835,-8.06269 2.45431,-10.63535 3.07669,-3.07669 5.86908,-2.08084 10.63535,-3.27241 3.95166,-0.98792 5.64996,-1.04181 9.81724,0 3.9881,0.99703 6.82063,-4.29737 9.81724,-6.54483 4.0067,-3.00502 2.74681,-11.97904 8.18102,-6.54482 3.8433,3.8433 4.79035,4.90862 10.63535,4.90862 4.85011,0 0.0937,-8.08733 0,-8.18104 -2.88849,-2.88849 -5.45799,-4.37115 -7.36293,-8.18103 -1.53938,-3.07876 -3.27242,-6.23391 -3.27242,-10.63534 0,-3.98186 2.12998,-6.71427 4.09053,-10.63535 1.96256,-3.92512 5.61138,-7.0719 8.18103,-8.99913 3.79491,-2.84619 6.13253,-5.31443 8.18103,-7.36293 2.31308,-2.31308 3.85637,-6.07652 5.72673,-9.81724 1.8305,-3.661 1.60621,-8.84918 2.4543,-13.08966 0.74793,-3.73961 0,-8.44368 0,-12.27155 0,-4.24955 0.12713,-8.49062 -0.8181,-12.27155 -1.18452,-4.7381 -1.87976,-6.86957 -4.09051,-9.81724 -2.55304,-3.40404 -4.92377,-7.37808 -7.36294,-9.81724 -0.19282,-0.19282 -0.5454,0 -0.8181,0 -3.90005,0 0.80793,-8.71287 1.63621,-9.81724 3.15941,-4.21255 5.13691,-5.95501 8.18103,-8.99914 2.85242,-2.85241 4.09052,-6.90424 4.09052,-11.45344 0,-4.25457 -3.18001,-8.81434 -4.90862,-12.27155 -1.79335,-3.58671 -5.09306,-7.73181 -6.54483,-10.63534 -2.08259,-4.16519 -3.75123,-4.56934 -6.54482,-7.36294 -4.37555,-4.37554 -6.48977,-1.25468 -10.63535,0.81811 -3.65291,1.82645 -6.50883,6.50884 -8.99913,8.99913 -3.36741,3.3674 -7.25902,4.67812 -11.45346,5.72673 -3.9902,0.99755 -8.60131,0.8181 -13.08965,0.8181 -3.35755,0 -7.85844,-1.55556 -11.45344,-2.45431 -3.52894,-0.88223 -6.44409,-2.35358 -8.99914,-4.90862 -3.24606,-3.24606 -6.96864,-6.24912 -10.63534,-8.99914 -4.61896,-3.46422 -7.3376,-5.8407 -5.72673,-13.08965"
         style="fill:#ffec40;fill-opacity:1;fill-rule:evenodd;stroke:#000000;stroke-width:1.61976206;stroke-linecap:round;stroke-linejoin:round;stroke-miterlimit:4;stroke-opacity:1;stroke-dasharray:none;stroke-dashoffset:0;marker:none;visibility:visible;display:inline;overflow:visible;enable-background:accumulate"
         inkscape:connector-curvature="0" />
      <path
         id="path3509"
         d="m 222.3361,439.00308 c 1.36351,0.5454 2.72701,1.09081 4.09052,1.63621 3.54485,1.41794 7.65218,3.82609 11.45345,5.72672 4.28137,2.14069 7.77877,2.96732 12.27154,4.09052 3.45942,0.86485 5.25707,2.80275 7.36294,4.90862 3.61843,3.61844 8.01362,-0.7344 11.45344,-2.45431 3.59725,-1.79863 7.5496,-7.61181 9.81724,-10.63534 2.48784,-3.31712 3.27241,-5.4169 3.27241,-9.81724 0,-3.19585 -7.54518,-1.38612 -9.81724,-0.81811 -1.73355,0.43339 -7.54005,-0.8181 -10.63534,-0.8181 -4.53402,0 -8.41414,-0.11655 -11.45345,-1.63621 -3.09574,-1.54787 -4.87049,-3.23429 -7.36293,-5.72672 -2.15275,-2.15276 -3.98455,-4.06402 -7.36292,-4.90863 -1.74561,-0.43639 -5.92731,5.92731 -7.36293,7.36294 -2.99071,2.9907 -5.36623,5.36622 -7.36294,7.36293 -1.69514,1.69514 -0.62862,1.95201 1.63621,5.72672 z"
         style="fill:#ff5240;fill-opacity:1;fill-rule:evenodd;stroke:#000000;stroke-width:1.61976206;stroke-linecap:round;stroke-linejoin:round;stroke-miterlimit:4;stroke-opacity:1;stroke-dasharray:none;stroke-dashoffset:0;marker:none;visibility:visible;display:inline;overflow:visible;enable-background:accumulate"
         inkscape:connector-curvature="0" />
      <path
         id="path2703"
         d="m 224.79041,403.82464 c 1.12374,1.52857 5.8047,11.53142 9.81724,15.54396 3.55513,3.55514 5.20221,8.29979 8.18103,12.27156 2.62824,3.5043 3.7927,5.72672 8.99914,5.72672 5.33691,0 10.58699,-2.45431 16.36207,-2.45431 5.66695,0 11.88837,-1.11842 16.36206,0 3.7464,0.93659 7.8832,0.68803 10.63535,0 1.52116,-0.38029 4.22446,-7.63081 4.90862,-8.99914 1.95032,-3.90064 4.04953,-7.28094 5.72673,-10.63534 2.39523,-4.79049 2.76276,-10.23297 4.09051,-15.54397 1.6737,-6.69481 1.93048,-14.56101 3.27241,-21.27069 0.97468,-4.87336 0.49753,-9.35302 1.63621,-13.90775 0.9306,-3.72241 1.63621,-7.30081 1.63621,-11.45345 0,-4.00909 0.8181,-6.19393 0.8181,-10.63534 0,-4.10376 -0.0241,-7.45898 -0.8181,-10.63534 -1.03433,-4.13731 -0.64464,-8.30528 -1.63621,-12.27156 -0.89632,-3.58527 -1.79592,-6.75778 -4.09052,-9.81724 -2.72002,-3.6267 -5.04326,-5.79404 -8.18103,-7.36292 -3.93712,-1.96857 -7.57534,-4.60578 -11.45345,-6.54483 -4.06729,-2.03365 -6.71557,-3.11058 -10.63534,-4.09052 -3.88757,-0.97189 -8.02053,-0.8181 -12.27155,-0.8181 -4.68307,0 -9.06072,0.83349 -12.27155,1.63621 -3.88881,0.97219 -7.61322,1.49424 -11.45345,2.4543 -4.28541,1.07136 -8.50938,3.51867 -11.45345,5.72673 -3.47,2.60249 -6.90742,5.18056 -9.81724,7.36292 -2.92988,2.19742 -4.26796,4.32712 -6.54482,7.36294 -3.0202,4.02692 -4.52849,6.60264 -6.54483,10.63534 -2.08247,4.16494 -3.81898,9.54919 -4.90862,13.90776 -0.95374,3.81496 -0.81811,8.01007 -0.81811,12.27155 0,2.40477 3.53262,7.16446 4.90863,8.99914 2.06286,2.75049 4.88322,5.70133 7.36293,8.18103 3.09599,3.09598 4.19192,7.56575 5.72672,10.63534 1.26284,2.52569 1.6362,7.09145 1.6362,10.63535 0,6.03699 -2.14579,8.14982 0.81811,13.08965 0.62746,1.04577 -2.18161,-1.09081 -3.27242,-1.6362 -1.0908,-0.54541 2.18161,1.0908 3.27242,1.6362 z"
         style="fill:#e6d09e;fill-opacity:1;fill-rule:evenodd;stroke:#000000;stroke-width:1.61976206;stroke-linecap:round;stroke-linejoin:round;stroke-miterlimit:4;stroke-opacity:1;stroke-dasharray:none;stroke-dashoffset:0;marker:none;visibility:visible;display:inline;overflow:visible;enable-background:accumulate"
         inkscape:connector-curvature="0" />
      <path
         id="path2691"
         d="m 257.91779,453.9677 c -0.57817,1.17592 -13.29503,7.35286 -15.30741,8.88326 -5.40571,4.11099 -1.41791,4.97186 2.60011,5.83663 3.81906,0.82195 9.83002,-1.52915 13.527,-1.55385 4.11165,-0.0274 10.07269,-2.90004 14.60991,-3.75634 6.00867,-1.134 11.33301,-4.13696 17.16116,-5.23688 6.71256,-1.26684 12.50488,-3.03901 18.99044,-5.2491 4.71665,-1.6073 8.44373,-2.26624 11.68549,-3.37094 4.49943,-1.53328 3.50712,-4.56999 0.68528,-6.9562 -3.14847,-2.66242 -7.01868,-1.41662 -10.25382,-1.39502 -1.77527,0.0118 -6.18728,2.10847 -8.76106,2.98553 -3.41356,1.16324 -7.87159,0.78433 -11.33674,0.80747 -3.6559,0.0245 -6.94408,2.24165 -10.22938,2.26359 -3.48984,0.0233 -7.45674,1.74031 -10.22938,2.26357 -4.38543,0.82765 -17.95123,4.51042 -7.65371,4.44163"
         style="fill:#958767;fill-opacity:1;fill-rule:evenodd;stroke:#000000;stroke-width:1.61976206;stroke-linecap:round;stroke-linejoin:round;stroke-miterlimit:4;stroke-opacity:1;stroke-dasharray:none;stroke-dashoffset:0;marker:none;visibility:visible;display:inline;overflow:visible;enable-background:accumulate"
         inkscape:connector-curvature="0" />
      <path
         id="path2689"
         d="m 223.97231,477.45394 c -0.2727,1.3635 -0.5454,2.72701 -0.81811,4.09052 -0.68686,3.43431 3.74017,8.8047 5.72673,11.45345 2.14147,2.85528 8.06349,4.26565 10.63534,4.90861 5.13635,1.28409 7.2387,-0.58252 11.45345,-1.6362 3.61829,-0.90458 6.58853,-4.10145 9.81724,-4.90862 2.85124,-0.71281 6.4003,-5.5822 8.18104,-7.36293 1.96713,-1.96715 3.39931,-6.23434 4.09051,-8.99914 0.71149,-2.84598 -6.87592,-3.55971 -8.99914,-4.09051 -0.58245,-0.14562 -1.35509,-4.63382 -5.72672,-5.72673 -5.4145,-1.35363 -3.94934,4.23169 -8.18103,0 -0.72344,-0.72343 -7.80368,4.6256 -8.18104,4.90862 -1.92279,1.44209 -2.4437,-5.73468 0.8181,-8.18103 2.23692,-1.67769 6.47621,-2.82905 8.99914,-4.09052 2.85963,-1.42982 7.44881,-0.83958 10.63534,-1.63621 4.11196,-1.02799 -0.98628,-6.21986 -3.27241,-7.36293 -3.46977,-1.73488 -5.67898,-2.45431 -10.63534,-2.45431 -3.05744,0 -5.59613,2.79807 -8.18103,4.09052 -2.74972,1.37486 -5.12478,4.04811 -7.36294,5.72672 -3.76385,2.82289 -6.30124,6.30126 -8.18103,8.18104 -1.94961,1.9496 -3.27241,5.75772 -3.27241,8.99913 0,7.48575 -0.39363,2.48516 -2.45431,-1.6362"
         style="fill:#e6d09e;fill-opacity:1;fill-rule:evenodd;stroke:#000000;stroke-width:1.61976206;stroke-linecap:round;stroke-linejoin:round;stroke-miterlimit:4;stroke-opacity:1;stroke-dasharray:none;stroke-dashoffset:0;marker:none;visibility:visible;display:inline;overflow:visible;enable-background:accumulate"
         inkscape:connector-curvature="0" />
      <path
         id="path2711"
         d="m 262.40672,395.47916 c -4.38741,-1.48886 -6.54482,-0.12188 -6.54482,6.54482 0,4.58501 8.87718,1.69718 10.63534,0.8181 3.2161,-1.60805 8.5546,2.54771 11.45345,3.27242 4.55868,1.13967 7.99015,-3.29061 9.81724,-5.72672 3.08191,-4.10922 0.98949,-8.77062 -1.63621,-12.27155 -3.00898,-4.01198 -8.54607,-6.72735 -13.08966,-8.99914 -3.28239,-1.6412 -3.40839,-2.18014 -2.4543,1.63621"
         style="fill:none;stroke:#000000;stroke-width:1.61976206;stroke-linecap:round;stroke-linejoin:round;stroke-miterlimit:4;stroke-opacity:1;stroke-dasharray:none;stroke-dashoffset:0;marker:none;visibility:visible;display:inline;overflow:visible;enable-background:accumulate"
         inkscape:connector-curvature="0" />
      <path
         id="path2719"
         d="m 236.97152,366.77154 c -1.1087,4.43482 -8.65484,-2.98181 -13.08965,-4.09052 -5.24037,-1.31009 -11.69446,-0.81811 -17.18018,-0.81811 -3.68945,0 -3.27241,6.60537 -3.27241,9.81724 0,6.48106 0.18936,5.53736 3.27241,2.45432 3.22495,-3.22494 6.82038,-0.74922 9.81724,0 4.16223,1.04056 7.19607,0 11.45345,0 4.79723,0 7.82543,-2.66808 8.99914,-7.36293 0.4235,-1.69401 2.18161,2.727 3.27241,4.09051"
         style="fill:#958767;fill-opacity:1;fill-rule:evenodd;stroke:#000000;stroke-width:1.61976206;stroke-linecap:round;stroke-linejoin:round;stroke-miterlimit:4;stroke-opacity:1;stroke-dasharray:none;stroke-dashoffset:0;marker:none;visibility:visible;display:inline;overflow:visible;enable-background:accumulate"
         inkscape:connector-curvature="0" />
      <path
         id="path2717"
         d="m 247.69731,365.13533 c -3.12728,0.62545 6.45527,-9.36341 8.99914,-10.63534 3.36286,-1.68144 8.83772,-0.85846 12.27155,0 3.69497,0.92374 6.93047,6.498 8.18103,8.99913 2.26164,4.5233 -1.39519,5.4857 -4.09052,8.18103 -2.19859,2.1986 -3.2393,-5.49736 -5.72672,-7.36292 -3.39764,-2.54823 -5.99058,-2.45432 -10.63534,-2.45432 -2.06567,0 -4.49179,7.33181 -4.90863,8.99914 -0.72751,2.91008 -3.7212,-4.80344 -4.09051,-5.72672 z"
         style="fill:#958767;fill-opacity:1;fill-rule:evenodd;stroke:#000000;stroke-width:1.61976206;stroke-linecap:round;stroke-linejoin:round;stroke-miterlimit:4;stroke-opacity:1;stroke-dasharray:none;stroke-dashoffset:0;marker:none;visibility:visible;display:inline;overflow:visible;enable-background:accumulate"
         inkscape:connector-curvature="0" />
      <path
         id="path2713"
         d="m 246.04466,357.0283 c -6.3086,-3.1543 -4.46745,-5.12921 -13.08966,-0.8181 -4.62393,2.31196 -9.35973,8.38911 -12.27155,12.27155 -2.73841,3.65121 2.38087,9.99203 4.09052,12.27155 3.30245,4.40326 10.87147,3.74049 15.54396,4.90862 3.56157,0.89039 8.83249,-1.55289 10.63534,-2.45432 0.24391,-0.12195 0.54541,0 0.81811,0 3.53289,0 3.27241,-6.71474 3.27241,-9.81724 0,-3.83819 -1.6227,-7.3089 -2.45431,-10.63534 -0.98583,-3.9433 -10.60332,-9.1088 -1.63621,-1.63621"
         style="fill:#ffffff;fill-opacity:1;fill-rule:evenodd;stroke:#000000;stroke-width:1.61976206;stroke-linecap:round;stroke-linejoin:round;stroke-miterlimit:4;stroke-opacity:1;stroke-dasharray:none;stroke-dashoffset:0;marker:none;visibility:visible;display:inline;overflow:visible;enable-background:accumulate"
         inkscape:connector-curvature="0" />
      <path
         id="path2721"
         d="m 290.28802,366.77976 c 0.38566,-1.54263 1.6362,-2.72701 2.4543,-4.09052 1.95515,-3.25858 10.29382,-3.27241 13.90776,-3.27241 5.07034,0 8.6114,-0.19387 12.27156,1.6362 1.93556,0.96779 0.76135,5.1356 0,8.18104 -0.70213,2.80849 -6.5735,1.6362 -9.81724,1.6362 -4.51294,0 -9.18809,2.54879 -12.27156,4.09053 -3.43313,1.71655 -5.39118,-5.87375 -6.54482,-8.18104 z"
         style="fill:#958767;fill-opacity:1;fill-rule:evenodd;stroke:#000000;stroke-width:1.61976206;stroke-linecap:round;stroke-linejoin:round;stroke-miterlimit:4;stroke-opacity:1;stroke-dasharray:none;stroke-dashoffset:0;marker:none;visibility:visible;display:inline;overflow:visible;enable-background:accumulate"
         inkscape:connector-curvature="0" />
      <path
         id="path2715"
         d="m 286.94983,355.39209 c -1.12004,-4.48016 -9.00778,0.009 -12.27156,3.27242 -3.80038,3.80038 -6.10562,9.93786 -4.90862,14.72585 1.34696,5.38785 3.57317,8.61113 7.36294,11.45345 4.32548,3.24412 9.71992,2.6374 14.72585,1.63621 5.22268,-1.04454 9.49479,-2.94996 12.27155,-5.72672 3.11767,-3.11767 3.59845,-6.0588 2.45432,-10.63535 -1.25945,-5.03778 -4.07379,-7.34619 -7.36294,-10.63534 -4.15013,-4.15014 -5.3647,-5.47189 -12.27154,-4.09052"
         style="fill:#ffffff;fill-opacity:1;fill-rule:evenodd;stroke:#000000;stroke-width:1.61976206;stroke-linecap:round;stroke-linejoin:round;stroke-miterlimit:4;stroke-opacity:1;stroke-dasharray:none;stroke-dashoffset:0;marker:none;visibility:visible;display:inline;overflow:visible;enable-background:accumulate"
         inkscape:connector-curvature="0" />
      <path
         id="path2723"
         d="m 213.27941,341.54189 c -3.9658,1.9829 3.68767,-18.14498 4.09052,-18.81638 3.34884,-5.5814 9.14183,-9.88859 13.90775,-12.27155 5.03514,-2.51756 4.50692,0.84748 5.72673,5.72672 1.48079,5.92319 0.66317,7.40167 7.36293,5.72673 5.20771,-1.30193 8.36692,-5.36415 13.08965,-6.54483 5.9692,-1.4923 5.8623,1.91201 4.90862,5.72673 -0.18677,0.74707 21.0542,-2.45431 23.725,-2.45431 5.94456,0 11.50077,-1.41985 17.18017,0 5.34981,1.33745 5.62422,1.22811 4.09052,7.36292 -1.6535,6.61398 13.63505,0 20.45258,0 5.90982,0 11.50244,-1.41943 17.18017,0 6.33385,1.58347 4.01092,0.73852 0,-3.27241 -3.64958,-3.64957 -11.51805,-4.09051 -16.36207,-4.09051 -5.93142,0 -11.83643,1.74045 -13.08965,-3.27242 -1.09852,-4.39405 3.21765,-12.81584 4.09052,-17.18016 1.36486,-6.82434 -6.01204,-4.09053 -13.08966,-4.09053 -7.28411,0 -13.8405,1.63621 -21.27068,1.63621 -5.08708,0 -5.72673,-2.83575 -5.72673,-7.36292 0,-5.3291 -0.90486,-10.7221 -4.09051,-13.90777 -3.96623,-3.96621 -10.64029,-2.04278 -14.72587,0 -7.05243,3.52622 -11.12167,11.28379 -15.54396,17.18018 -2.41881,3.22507 -1.67012,-2.06222 -5.72672,-4.09052 -4.91395,-2.45698 -15.29772,5.62822 -19.63449,7.36293 -7.11377,2.84551 -7.55814,7.75335 -10.63534,13.90776 -2.83559,5.67118 1.40177,5.72672 -7.36293,5.72672 -5.34708,0 -6.61988,6.92013 -7.36293,10.63534 -0.73737,3.68683 6.14098,6.14099 8.99914,8.99914 2.19859,2.19859 3.23931,5.49737 5.72672,7.36293 1.70389,1.27792 4.49092,2.00202 4.90862,4.09051"
         style="fill:#755941;fill-opacity:1;fill-rule:evenodd;stroke:#000000;stroke-width:1.61976206;stroke-linecap:round;stroke-linejoin:round;stroke-miterlimit:4;stroke-opacity:1;stroke-dasharray:none;stroke-dashoffset:0;marker:none;visibility:visible;display:inline;overflow:visible;enable-background:accumulate"
         inkscape:connector-curvature="0" />
      <path
         id="path3501"
         d="m 237.06197,582.98928 c 1.88706,1.71752 4.58191,9.32853 5.72671,13.90775 1.02307,4.09225 2.43884,8.11912 3.27242,11.45345 0.84388,3.3755 1.68401,5.77453 4.09052,8.18103 2.36921,2.36922 6.25566,3.80136 8.18103,5.72673 1.08492,1.08491 4.21848,8.69291 2.45431,1.63621 -0.83921,-3.35682 -1.78854,-7.97228 -2.45431,-10.63535 -1.427,-5.70801 6.41447,0.68775 6.54483,0.8181 3.10313,3.10313 5.72672,2.97042 5.72672,-2.4543 0,-5.53696 1.7656,-7.73964 6.54483,-6.54483 3.71744,0.92935 6.85877,3.83844 10.63534,5.72672 0.85441,0.4272 3.84398,-10.14226 4.09052,-10.63534 1.10435,-2.20871 5.15422,0.28625 7.36293,-0.81811 5.08714,-2.54356 -1.88387,-7.48675 6.54483,-3.27241 5.58623,2.79312 5.89979,2.36777 8.99913,0.8181 2.24316,-1.12158 5.66771,-3.03638 6.54483,-6.54482 0.57169,-2.28678 -3.40911,-6.9998 -4.90862,-8.99914 -2.21496,-2.95327 -3.60175,-4.25518 -6.54483,-5.72672 -0.24391,-0.12196 -0.5454,0 -0.8181,0 -3.65324,0 -5.33581,-4.1268 -6.54483,-6.54484 -1.90676,-3.81351 -2.36233,-5.54277 -4.09051,-8.99913 -1.95183,-3.90365 -7.10132,1.09635 -9.81724,2.45431 -3.40737,1.70369 -7.33035,3.66517 -11.45345,5.72672 -4.17288,2.08644 -8.89954,3.04299 -13.08966,4.09052 -3.92696,0.98174 -7.43821,2.49195 -10.63534,4.09052 -2.7702,1.3851 -6.16241,1.74513 -8.99914,2.45431 -2.02668,0.50667 -4.44112,2.33743 -7.36292,4.09052 z"
         style="fill:#ff5240;fill-opacity:1;fill-rule:evenodd;stroke:#000000;stroke-width:1.61976206;stroke-linecap:round;stroke-linejoin:round;stroke-miterlimit:4;stroke-opacity:1;stroke-dasharray:none;stroke-dashoffset:0;marker:none;visibility:visible;display:inline;overflow:visible;enable-background:accumulate"
         inkscape:connector-curvature="0" />
      <path
         id="path3505"
         d="m 272.24041,522.44963 c -4.40757,4.47858 -6.42006,7.9315 -8.99914,13.08965 -1.85053,3.70106 -4.01996,6.40371 -5.72672,9.81724 -2.17397,4.34794 -2.43061,2.54914 -1.63621,5.72673 0.21629,0.86514 9.4103,-4.60342 9.81724,-4.90863 2.1644,-1.62329 4.85002,-3.25776 8.18103,-4.09051 4.80066,-1.20017 5.87153,-4.46337 10.63534,-3.27242 3.34237,0.83559 5.89915,3.31552 8.99914,4.09052 4.19904,1.04976 5.88019,1.96854 9.81724,0 2.92259,-1.46129 4.85228,-5.67038 7.36293,-8.18103 2.26965,-2.26964 6.1145,-3.87535 8.18104,-4.90862 2.86015,-1.43008 3.88802,-4.70613 6.54483,-7.36293 2.22267,-2.22267 2.55485,-6.947 3.27241,-9.81724 0.67399,-2.69597 -5.38098,-4.00409 -5.72673,-4.09052 -1.45115,-0.36279 -6.24351,3.12175 -8.18103,4.09052 -3.07797,1.53898 -6.29611,4.37521 -8.99913,5.72672 -2.42918,1.21459 -8.67727,0 -11.45346,0 -3.81685,0 -6.46537,-1.63621 -10.63534,-1.63621 -5.81149,0 -4.79561,-2.56731 -8.99914,1.63621 -1.12437,1.12438 -1.6362,2.72701 -2.4543,4.09052 z"
         style="fill:#ff5240;fill-opacity:1;fill-rule:evenodd;stroke:#000000;stroke-width:1.61976206;stroke-linecap:round;stroke-linejoin:round;stroke-miterlimit:4;stroke-opacity:1;stroke-dasharray:none;stroke-dashoffset:0;marker:none;visibility:visible;display:inline;overflow:visible;enable-background:accumulate"
         inkscape:connector-curvature="0" />
      <path
         id="path3507"
         d="m 276.33093,471.72722 c 0.54539,1.3635 1.0908,2.72701 1.6362,4.09051 1.23331,3.08327 1.63621,8.02357 1.63621,11.45345 0,6.31455 0.97081,5.87944 2.45431,7.36293 0.5377,0.5377 10.46328,-5.64069 10.63534,-5.72672 3.34221,-1.67111 7.38801,-2.45431 11.45344,-2.45431 4.19221,0 6.71328,-0.8181 10.63535,-0.8181 4.16036,0 5.95329,-1.54804 4.90862,-5.72673 -0.81783,-3.27134 -4.8956,-6.80017 -6.54483,-8.99913 -1.73772,-2.31697 -3.43925,-3.6061 -4.90861,-6.54483 -1.98761,-3.97522 -3.72107,-2.54667 -7.36294,-1.63621 -3.43056,0.85765 -5.9772,1.63621 -10.63534,1.63621 -4.14978,0 -6.55175,0.81983 -9.81724,1.6362 -4.48596,1.12149 -7.5726,-0.0768 -4.09051,5.72673 z"
         style="fill:#ff5240;fill-opacity:1;fill-rule:evenodd;stroke:#000000;stroke-width:1.61976206;stroke-linecap:round;stroke-linejoin:round;stroke-miterlimit:4;stroke-opacity:1;stroke-dasharray:none;stroke-dashoffset:0;marker:none;visibility:visible;display:inline;overflow:visible;enable-background:accumulate"
         inkscape:connector-curvature="0" />
      <path
         id="path3516"
         d="m 263.76124,326.13374 c -1.24566,0.27261 -3.66924,3.27256 -4.85929,4.85929 -1.47924,1.97232 5.02862,0.80988 6.47905,0.80988 4.03681,0 2.44617,1.1983 0.80988,2.83458 -2.25486,2.25486 -3.48945,2.58466 -1.61976,4.45435 1.21482,1.21482 4.85929,0 6.07411,1.21482 1.16506,1.16506 -2.09774,2.57571 -2.83458,4.0494"
         style="fill:none;stroke:#000000;stroke-width:1.61976206;stroke-linecap:round;stroke-linejoin:round;stroke-miterlimit:4;stroke-opacity:1;stroke-dasharray:none;stroke-dashoffset:0;marker:none;visibility:visible;display:inline;overflow:visible;enable-background:accumulate"
         inkscape:connector-curvature="0" />
      <path
         id="path3518"
         d="m 238.65493,367.43767 c 1.2982,1.2982 -3.35279,1.77078 -4.45435,3.23953 -1.56908,2.09211 -1.48866,4.71653 -0.40494,6.88399 0.78729,1.57457 4.51313,1.21482 6.07411,1.21482 2.20665,0 3.94989,-2.43194 4.85929,-3.64447 1.41587,-1.88783 -0.242,-4.53339 -0.80988,-5.66916 -1.27935,-2.5587 -1.86923,-4.0617 -5.26423,-2.02471 z"
         style="fill:#755941;fill-opacity:1;fill-rule:evenodd;stroke:#000000;stroke-width:1.61976206;stroke-linecap:round;stroke-linejoin:round;stroke-miterlimit:4;stroke-opacity:1;stroke-dasharray:none;stroke-dashoffset:0;marker:none;visibility:visible;display:inline;overflow:visible;enable-background:accumulate"
         inkscape:connector-curvature="0" />
      <path
         id="path3520"
         d="m 288.86755,367.03273 c -1.06535,-2.1307 -4.47696,0.0226 -6.07411,1.61976 -2.37495,2.37496 -0.92844,5.95555 0.80989,7.69387 1.84383,1.84384 7.18864,0.42501 9.31363,0 2.30233,-0.46046 2.83458,-1.56453 2.83458,-4.0494 0,-1.97877 -2.337,-4.3617 -3.23952,-5.26423 -0.8793,-0.87929 -2.80224,-0.16844 -3.64447,0 z"
         style="fill:#755941;fill-opacity:1;fill-rule:evenodd;stroke:#000000;stroke-width:1.61976206;stroke-linecap:round;stroke-linejoin:round;stroke-miterlimit:4;stroke-opacity:1;stroke-dasharray:none;stroke-dashoffset:0;marker:none;visibility:visible;display:inline;overflow:visible;enable-background:accumulate"
         inkscape:connector-curvature="0" />
      <path
         sodipodi:nodetypes="ccssssssssssssssssssssssssssssssssssssssssssssssssssssssssssssssc"
         id="path3522"
         d="m 318.83736,437.11367 c -2.12496,5.04746 -1.14991,1.89674 -4.32566,2.36021 -6.26779,-4.59171 -10.63633,-8.05967 -17.99477,-11.3185 -5.62416,-2.49075 -10.43154,-4.05407 -13.33396,-3.4297 -0.38318,0.0824 12.01759,15.88829 13.2434,16.7863 4.50628,3.30126 10.4589,8.6488 12.88517,11.6767 1.7426,2.1747 -2.64825,13.54696 -3.45234,16.67311 -1.76256,6.85241 -2.48605,14.56011 -2.26451,15.30614 1.4842,4.99809 6.04068,-8.50014 9.12191,-12.70607 3.06381,-4.18215 4.91409,-8.22456 8.51666,-10.35302 5.30012,-3.13139 6.97047,10.22997 11.29383,14.61236 3.34321,3.38884 7.25513,7.49995 9.16519,9.88362 0.36496,0.45548 -2.49134,-15.02567 -3.02421,-17.50274 -1.49617,-6.95508 -6.79185,-12.26754 -6.7442,-19.29581 0.004,-0.5949 14.70101,8.14399 17.61392,9.54804 5.6396,2.71836 11.90296,3.06164 18.04005,4.6402 0.23251,0.0598 -7.84126,-10.82174 -9.92688,-13.42452 -3.47772,-4.34007 -10.88093,-11.66182 -11.69733,-13.04366 -1.60143,-2.71052 6.34345,-1.0872 9.05398,-2.68862 5.27092,-3.11414 7.21409,-5.67061 13.58098,-4.03294 4.36217,1.12202 7.68417,7.74024 10.93562,9.50276 0.61923,0.33567 14.43913,-12.36799 17.57066,-13.04164 6.31786,-1.35908 8.56292,-3.51979 11.3844,1.25576 3.67767,6.22476 6.11725,2.54982 11.60877,-2.86773 5.44632,-5.37295 8.65906,-6.13518 14.56708,-4.61554 8.40969,2.16311 12.60438,4.95786 21.40185,1.32369 7.40783,-3.06012 12.91739,-12.69668 18.96024,-15.19295 0.30214,-0.12482 9.00007,6.5432 12.52697,6.56711 6.15589,0.0417 17.47396,-7.46371 20.48366,-8.11115 1.5308,-0.32931 7.80239,9.43582 14.67827,7.9567 7.82817,-1.68399 15.05933,-1.01668 22.41057,-2.59807 6.94237,-1.49343 15.06929,-5.34422 21.06627,-7.12506 3.62444,-1.07629 -0.89149,14.41352 8.20172,7.12708 7.63891,-6.12111 14.02469,-15.15582 18.62466,-23.6417 3.20024,-5.90368 6.4856,-10.89463 9.34631,-16.82956 3.65152,-7.57558 -1.83319,-4.14979 -6.07306,-2.39834 -4.83751,1.99835 -9.97091,5.08387 -13.80537,8.15644 -2.8464,2.28085 -4.63902,4.84836 -6.14098,7.61912 -1.85736,3.42642 -3.28848,6.28263 -4.39316,10.57741 -1.02701,3.99279 -0.77344,-3.03749 -4.66082,-7.88879 -3.63705,-4.53889 -8.09808,-7.93666 -11.92172,-8.92016 -3.88674,-0.99973 -6.13923,5.76636 -10.06273,6.61037 -5.27681,1.13515 -11.87806,3.50473 -18.30971,6.16161 -8.45751,3.49374 -7.02869,-12.1224 -7.5512,-16.15842 -0.89725,-6.93053 -16.48994,10.72273 -18.15325,12.05555 -4.13284,3.31167 -5.87478,-1.25347 -12.97574,1.67988 -6.91312,2.85577 -8.53018,7.17097 -15.95667,6.76684 -6.9436,-0.37784 -12.28827,3.26919 -18.51148,6.94596 -3.80399,2.24747 3.19218,-7.62775 -5.66955,-3.96704 -7.12437,2.94303 -8.74453,9.55922 -14.97057,6.18425 -5.61227,-3.04226 -9.89079,-0.80791 -16.71838,3.22594 -4.92972,2.91256 -11.90895,2.79053 -14.74619,2.06074 -5.68953,-1.46344 -13.16665,0.60954 -20.64013,2.21721 -7.67036,1.65004 -13.45673,1.78336 -18.28708,2.82246 -5.22056,1.12303 -11.00309,3.83532 -14.18622,6.38599 -3.22176,2.58161 -3.4263,6.01523 -6.14098,7.61911 -3.80898,2.25041 -7.11964,-19.3189 -7.3268,-20.28192 -1.20705,-5.61107 -3.42067,-11.60943 -7.75295,-15.37407 -2.24938,-1.95464 -6.0075,22.01714 -5.46982,24.51661 1.51606,7.04758 0.99036,10.36768 -5.15487,7.03651 -4.52539,-2.45309 -8.27382,-8.14938 -12.10083,-11.47496 -3.71685,-3.22984 -13.48157,-6.75676 -10.8018,-0.26966 2.46401,5.9648 7.76635,11.50535 11.67469,16.3828 2.75413,3.43704 5.68285,2.84487 8.51028,5.30182 2.92379,2.54071 2.72017,2.58219 4.77881,3.00594 z"
         style="fill:#fc00ff;fill-opacity:1;fill-rule:evenodd;stroke:#000000;stroke-width:1.61976206;stroke-linecap:round;stroke-linejoin:round;stroke-miterlimit:4;stroke-opacity:1;stroke-dasharray:none;stroke-dashoffset:0;marker:none;visibility:visible;display:inline;overflow:visible;enable-background:accumulate"
         inkscape:connector-curvature="0" />
      <path
         id="path3526"
         d="m 249.57894,417.44606 c 0.47723,-0.38178 0.95446,-0.76356 1.43169,-1.14534 2.91745,-2.33397 9.96024,-1.14535 13.4578,-1.14535 5.4386,0 10.85055,-0.28634 16.32116,-0.28634 1.83593,0 3.65928,0.41373 5.44038,0.85901 1.61976,0.40494 -3.11444,1.39643 -4.29504,2.57703 -1.97826,1.97825 -5.35662,2.77959 -7.44474,4.86772 -2.1265,2.12649 -4.44823,3.90883 -6.87207,5.72672 -1.57816,1.18362 -1.44692,1.85737 -3.14969,1.43168 -1.23964,-0.30991 -2.04272,-0.85901 -3.43604,-0.85901 -1.44519,0 -2.54336,0.28634 -4.0087,0.28634 -1.44435,0 0.0733,-3.00318 -0.57268,-4.29504 -0.59171,-1.18344 0.31538,-3.55219 0.57268,-4.58139 0.44767,-1.79067 0.30648,-2.55687 -0.57268,-3.43603 -0.71069,-0.71069 -2.64279,-0.57267 -3.72237,-0.57267 -3.02046,0 -2.7841,1.39205 0.57267,-0.28634 0.54663,-0.27331 0.95446,-0.76356 1.43168,-1.14534"
         style="fill:#755941;fill-opacity:1;fill-rule:evenodd;stroke:#000000;stroke-width:1.61976206;stroke-linecap:round;stroke-linejoin:round;stroke-miterlimit:4;stroke-opacity:1;stroke-dasharray:none;stroke-dashoffset:0;marker:none;visibility:visible;display:inline;overflow:visible;enable-background:accumulate"
         inkscape:connector-curvature="0" />
      <path
         style="fill:#6f916f;stroke:#000000;stroke-width:0.60489178px;stroke-linecap:butt;stroke-linejoin:miter;stroke-opacity:1"
         d="m 431.30835,524.88265 c -2.1357,4.90126 -3.56087,10.35367 -3.56087,15.76962 0,4.4642 -1.95342,9.05473 -1.0174,13.73483 4.42351,22.11758 21.40858,14.94164 31.03054,0.50869 3.13766,-4.70649 7.70985,-28.40765 3.56088,-32.55662 -0.25435,-0.25435 0.25435,-1.27175 0,-1.5261 -1.02708,-1.02708 -2.5812,-1.2906 -4.06958,-2.03479 -1.04159,-0.52079 -3.19646,0.14427 -3.56088,0.5087 -0.37073,0.37072 -1.53305,0.51565 -2.03479,1.01739 -3.30466,3.30466 0.0322,14.14703 -1.52609,18.82181 -1.26586,3.79755 -2.46664,7.47676 -4.06958,10.68265 -0.6335,1.26698 -6.07472,6.134 -7.12176,5.08696 -5.0909,-5.09089 -2.68823,-18.89628 -0.50871,-25.43486 0.61993,-1.85978 3.59376,-6.03863 2.54349,-8.13916 -2.63326,-5.26653 -7.41995,0.75427 -9.66525,3.56088 z"
         id="path54193"
         inkscape:connector-curvature="0" />
      <path
         style="fill:#6f916f;stroke:#000000;stroke-width:0.60489178px;stroke-linecap:butt;stroke-linejoin:miter;stroke-opacity:1"
         d="m 490.31724,522.84786 c -6.31449,-4.44958 -24.28437,2.30099 -20.34789,10.17395 3.55045,7.1009 13.71039,9.59192 16.27831,17.29571 2.61049,7.83145 -9.5794,10.68265 -14.75221,10.68265 -2.80791,0 -13.22614,-6.80494 -13.22614,-0.5087 0,1.75302 -0.21937,3.63083 0.5087,5.08697 4.47159,8.94319 32.74037,4.21078 37.6436,-5.59567 4.64801,-9.29602 -2.4318,-18.25726 -10.68264,-22.38268 -1.26653,-0.63326 -2.88022,-0.67348 -3.56088,-2.0348 -3.75448,-7.50894 22.02413,-1.60944 8.13915,-12.71743 z"
         id="path54195"
         inkscape:connector-curvature="0" />
      <path
         style="fill:#6f916f;stroke:#000000;stroke-width:0.60489178px;stroke-linecap:butt;stroke-linejoin:miter;stroke-opacity:1"
         d="m 534.06522,521.32177 c -7.09755,-2.52679 -26.46745,-1.49572 -30.01315,5.59567 -1.68264,3.36528 0.21108,23.52461 1.5261,27.46966 1.15161,3.45484 0.85147,11.02543 3.05218,13.22614 0.0564,0.0564 18.8085,1.19139 19.3305,1.01738 2.29141,-0.76379 5.28068,-0.7024 6.61307,-2.03478 0.87227,-0.87227 0.50869,-3.34849 0.50869,-4.57828 0,-0.8612 0.37683,-2.80724 0,-3.56088 -0.28018,-0.56037 -0.41935,-2.24447 -1.01739,-2.54349 -2.82258,-1.41128 -16.53724,3.81066 -17.80441,2.54349 -1.03512,-1.03512 -1.95793,-3.99273 -3.05219,-5.08698 -6.5902,-6.5902 15.4349,0.85664 11.19135,-7.63045 -0.56328,-1.12656 -1.25045,-3.28524 -2.03479,-4.06958 -2.75623,-2.75623 -10.17395,5.11804 -10.17395,-4.57828 0,-0.10412 1.26497,-1.51254 1.52609,-2.03479 2.57094,-5.14186 9.95313,-1.92438 14.24353,-4.06958 1.5683,-0.78416 2.72728,-1.36364 4.06958,-2.03479 0.30713,-0.15356 1.29094,0.23516 1.52609,0 1.11023,-1.11022 1.77563,-2.28432 2.54349,-3.05218 0.003,-0.003 -1.38184,-2.94589 -2.03479,-4.57828 z"
         id="path54197"
         inkscape:connector-curvature="0" />
      <path
         style="fill:#6f916f;stroke:#000000;stroke-width:0.60489178px;stroke-linecap:butt;stroke-linejoin:miter;stroke-opacity:1"
         d="m 579.33929,568.63063 c -1.72655,-5.9196 -2.53086,-11.64954 -4.06958,-17.80441 -0.84773,-3.39093 -1.52609,-7.64545 -1.52609,-11.19135 0,-3.02487 -2.12162,-5.34746 -3.05219,-8.13915 -0.43322,-1.29968 -1.15145,-4.95292 0,-6.10437 0.4729,-0.4729 9.458,-3.66451 11.70004,-2.54349 2.39823,1.19912 4.75705,2.88722 7.12177,4.06958 3.73436,1.86718 11.65661,17.80441 11.70003,17.80441 0.58743,0 0.5087,-5.383 0.5087,-6.10437 0,-4.12905 -0.32375,-15.95457 2.03479,-18.3131 1.11022,-1.11023 3.30172,-0.75824 4.06958,-1.5261 0.27603,-0.27603 1.12082,-0.96568 2.03479,-0.50869 1.57596,0.78798 3.26552,1.73942 4.06958,2.54348 2.26137,2.26137 -0.51392,24.43315 -1.52609,27.46966 -1.6108,4.83239 1.80821,11.92662 -1.5261,15.26092 -5.70457,5.70458 -15.4126,-11.77588 -20.34789,-14.24353 -1.22013,-0.61007 -4.87494,-4.28161 -5.08697,-4.06957 -0.99655,0.99654 0.50869,5.57673 0.50869,6.61306 0,3.94258 4.53678,16.31982 1.5261,19.3305 -0.3072,0.3072 -2.56978,0 -3.05219,0 -2.21448,0 -3.72298,-0.72482 -5.08697,-2.54348 z"
         id="path54199"
         inkscape:connector-curvature="0" />
      <path
         style="fill:#6f916f;stroke:#000000;stroke-width:0.60489178px;stroke-linecap:butt;stroke-linejoin:miter;stroke-opacity:1"
         d="m 633.40386,517.68867 c -0.0536,0.0106 -0.11087,0.0353 -0.15123,0.0756 -2.17258,2.17259 -6.17907,3.71955 -8.12823,7.61786 -5.9058,11.81161 -10.257,38.81631 6.10563,44.27052 1.6611,0.5537 5.1087,2.02958 7.12638,1.02075 11.74577,-5.87289 7.2422,-6.34276 13.2131,-16.29427 5.24901,-8.74835 1.39403,-19.78903 -4.06411,-27.97624 -1.86295,-2.79442 -5.90495,-4.88419 -7.63676,-6.61601 -0.20432,-0.20431 -1.22453,0.0959 -1.51223,0 -0.86628,-0.28876 -1.71258,-1.36156 -2.55189,-1.00185 0.19067,0.5777 0.0382,0.5769 -0.24574,0.37806 l 0,-0.0189 c -0.54593,-0.38724 -1.63028,-1.55918 -2.15492,-1.45552 z m 1.73906,14.74424 c 0.48135,-0.009 1.04102,0.16774 1.68236,0.58599 7.11669,4.27002 9.99393,20.95667 1.02075,25.44326 -6.5143,3.25715 -10.80914,-5.02577 -9.67827,-10.68012 0.6643,-3.32146 1.48158,-6.51689 3.06227,-9.67827 1.06597,-2.13193 1.82706,-5.63042 3.91289,-5.67086 z"
         id="path54201"
         inkscape:connector-curvature="0" />
      <path
         style="fill:#6f916f;stroke:#000000;stroke-width:0.60489178px;stroke-linecap:butt;stroke-linejoin:miter;stroke-opacity:1"
         d="m 669.58395,519.71128 c -1.17093,-0.0321 -2.32541,0.12304 -3.2513,0.58599 -1.88197,0.94098 -5.59714,0.51226 -7.12638,2.04151 -3.11841,3.11841 1.90574,16.92659 3.04336,20.33948 2.02536,6.07605 0.5753,12.38712 2.55189,18.31688 0.42944,1.28834 -0.60439,3.36572 0,4.5745 0.0929,0.18571 0.20678,0.37641 0.34025,0.54818 -0.11396,-0.0867 -0.23084,-0.11986 -0.34025,-0.0378 -0.59348,0.44511 0.62933,1.15325 1.2854,1.77687 -0.17133,-0.40205 -0.40815,-0.99726 -0.68051,-1.41772 0.4462,0.52551 0.92624,1.03303 0.92624,1.68236 l 0.51038,2.04151 c 1.06215,1.06214 1.10044,0 3.55374,0 10.74361,0 16.39831,-3.44997 20.33949,-15.27352 0.91422,-2.74265 2.64737,-7.33141 1.53113,-10.68012 -1.8991,-5.69731 -6.82256,-19.17627 -12.21125,-21.87062 -2.42832,-1.21416 -4.63072,-1.21593 -7.10748,-2.04151 -1.00345,-0.33449 -2.19378,-0.55388 -3.36471,-0.58599 z m -3.2513,48.41025 c -0.0636,-0.0848 -0.15201,-0.17556 -0.24573,-0.26464 0.13762,0.32297 0.24573,0.53301 0.24573,0.26464 z m 4.87694,-35.04592 c 6.05538,-0.1741 13.25981,11.65528 11.39843,17.23941 -1.32608,3.9783 -4.41468,4.54873 -7.63676,7.12638 0.11884,2.19208 -0.64781,-3.02268 -3.04336,-6.616 -1.46354,-2.1953 -5.15108,-15.99653 -2.55188,-17.29612 0.59059,-0.29531 1.20715,-0.43566 1.83357,-0.45367 z"
         id="path54209"
         inkscape:connector-curvature="0" />
      <path
         style="fill:#6f916f;stroke:#000000;stroke-width:0.60489178px;stroke-linecap:butt;stroke-linejoin:miter;stroke-opacity:1"
         d="m 694.81359,524.37395 c -1.27004,6.34922 1.82379,12.67984 3.05219,18.82181 0.86743,4.33718 -1.03177,9.09907 0,13.22613 0.39834,1.59338 1.91382,15.64866 2.03479,15.76961 0.54753,0.54754 1.27703,0 2.54348,0 4.57992,0 9.88531,0 14.75222,0 2.07271,0 11.19135,1.91533 11.19135,-0.50869 0,-2.11133 1.13027,-5.31273 2.03479,-7.12176 0.58563,-1.17127 -0.5087,-2.62703 -0.5087,-3.56088 0,-9.73354 -18.4488,0.88169 -21.36529,-2.0348 -0.50419,-0.50418 0,-0.7753 0,-2.54348 0,-0.56504 -0.3597,-3.20118 0,-3.56088 1.57523,-1.57524 8.83452,1.15274 11.19134,-3.56089 0.58564,-1.17127 -0.5087,-2.62701 -0.5087,-3.56088 0,-8.68987 -8.70598,-2.60161 -10.68264,-4.57828 -0.46891,-0.4689 -1.04573,-2.09144 -1.52609,-3.05218 -1.20392,-2.40783 3.33354,-2.93852 4.57827,-3.56088 6.05188,-3.02594 18.45621,4.35578 12.20874,-8.13915 -0.66912,-1.33825 -0.46155,-4.02243 -1.52609,-5.08698 -0.49425,-0.49425 -2.05529,-1.53635 -3.05219,-2.0348 -1.67751,-0.83875 -19.0003,1.7046 -19.8392,2.54349 -0.43952,0.43954 -3.86363,-0.51486 -4.06958,0 -0.32111,0.80279 -0.33913,1.69567 -0.50869,2.54349 z"
         id="path54214"
         inkscape:connector-curvature="0" />
      <path
         style="fill:#6f916f;stroke:#000000;stroke-width:0.60489178px;stroke-linecap:butt;stroke-linejoin:miter;stroke-opacity:1"
         d="m 383.9995,627.13082 c 0.27252,-7.75314 1.08928,-36.4078 7.63046,-39.67839 5.7296,-2.8648 7.98364,3.40536 12.20873,7.63046 2.19744,2.19743 3.41929,5.22857 3.56089,5.08697 0.90086,-0.90086 0.58779,-4.81557 1.01739,-6.10437 2.27936,-6.83806 9.93949,-10.9171 15.26092,-5.59567 6.46007,6.46007 11.61954,26.69378 8.64786,35.60882 -0.69294,2.07883 0.23043,2.82175 -1.0174,4.06958 -1.10348,1.10348 -4.93552,-0.86595 -5.59567,-1.5261 -5.63527,-5.63526 -6.87297,-13.74593 -10.17395,-20.34789 -1.15195,-2.30392 -2.5457,-2.03036 -3.56087,0 -0.57184,1.14367 0.1598,3.5316 0.50869,4.57828 1.57547,4.72642 -0.0365,12.75397 -2.54348,15.26092 -0.53952,0.53952 0.0187,1.51675 -1.0174,2.03479 -10.34006,5.17003 -8.17586,-21.60129 -13.73483,-18.82181 -3.69676,1.84838 0.66114,14.44734 -1.01739,17.80441 -1.36925,2.73849 -0.76611,5.08697 -4.57828,5.08697 -0.20946,0 -1.39144,0.13466 -1.52609,0 -0.54679,-0.54678 -0.92192,-1.81846 -1.52609,-2.54348 -2.61917,-3.14299 -4.1129,-2.54349 0,-2.54349"
         id="path54229"
         inkscape:connector-curvature="0" />
      <path
         style="fill:#6f916f;stroke:#000000;stroke-width:0.60489178px;stroke-linecap:butt;stroke-linejoin:miter;stroke-opacity:1"
         d="m 458.23732,587.22336 c -1.08283,0.003 -2.26013,0.22924 -3.53048,0.73738 -6.80553,-1.46926 -14.3358,13.77409 -15.2615,19.32825 -0.36257,2.17539 -1.55344,5.94183 -1.00552,8.13351 4.54978,18.19909 21.4823,17.97564 31.52852,4.58068 1.93583,-2.58109 4.61232,-14.11641 3.55282,-17.29487 -0.34624,-1.03878 -1.88707,-2.596 -2.52496,-3.55283 -3.54892,-5.32338 -6.91161,-11.94596 -12.75888,-11.93212 z m -2.72607,14.09957 c 0.48914,-0.017 1.17216,0.227 2.25683,0.87145 6.66695,-1.33339 8.60733,11.2148 2.52496,14.25598 -3.93295,1.96648 -12.14801,0.77414 -10.68081,-5.09461 0.6921,-2.76839 2.50637,-5.75942 4.08909,-8.13351 0.71862,-1.07792 0.9947,-1.87102 1.80993,-1.89931 z"
         id="path54231"
         inkscape:connector-curvature="0" />
      <path
         style="fill:#6f916f;stroke:#000000;stroke-width:0.60489178px;stroke-linecap:butt;stroke-linejoin:miter;stroke-opacity:1"
         d="m 485.72142,584.07274 c -2.39257,0.0677 -4.0444,0.85597 -4.0444,2.86014 0,7.06787 3.18328,13.28828 4.06675,20.35611 0.77356,6.18842 0.83474,12.85604 3.55282,18.32274 16.63064,0 22.88591,-9.16442 18.81433,-25.45073 -0.95743,-3.82975 -2.75561,-8.664 -6.10014,-11.1724 -2.25073,-1.68804 -11.02569,-5.0647 -16.28936,-4.91586 z m 5.09462,11.52992 c 5.01583,1.00318 11.05752,5.88297 8.15585,11.68633 -0.45713,0.91423 -0.34877,3.38767 -1.02786,4.06676 -0.91652,0.91652 -2.16225,1.67066 -3.03889,2.5473 -1.53844,1.53844 -2.50571,-10.06135 -3.57517,-12.20026 -1.00893,-2.01786 -1.19274,-3.85765 -0.51393,-6.10013 z"
         id="path54235"
         inkscape:connector-curvature="0" />
      <path
         style="fill:#6f916f;stroke:#000000;stroke-width:0.60489178px;stroke-linecap:butt;stroke-linejoin:miter;stroke-opacity:1"
         d="m 521.85648,584.40025 c -2.51408,4.9053 -1.52609,10.87375 -1.52609,16.27831 0,10.70599 5.45251,27.34781 18.82181,22.89138 1.59736,-0.53246 3.17661,-2.73012 4.06958,-4.06958 6.52312,-9.78469 8.80484,-21.40302 5.08697,-32.55663 -0.71748,-2.15245 -4.20423,-4.20423 -5.08697,-5.08698 -1.85928,-1.85927 -5.08698,2.66251 -5.08698,4.06958 0,7.20086 6.30925,16.07344 0.5087,21.87399 -1.14568,1.14568 -6.69164,3.48231 -8.64786,1.52609 -6.12524,-6.12524 2.43469,-20.96539 0.5087,-22.89137 -1.14499,-1.145 -2.37216,-2.37217 -3.56088,-3.56089 -0.0203,-0.0203 -3.60442,1.22958 -5.08698,1.5261 z"
         id="path54239"
         inkscape:connector-curvature="0" />
      <path
         style="fill:#6f916f;stroke:#000000;stroke-width:0.60489178px;stroke-linecap:butt;stroke-linejoin:miter;stroke-opacity:1"
         d="m 560.00879,585.92633 c -0.67827,0.50871 -1.43528,0.92659 -2.03479,1.5261 -0.49572,0.49572 0,4.3159 0,5.08697 0,5.76436 -0.65366,21.29414 0.50869,25.94356 2.30053,9.2021 8.89133,10.93918 17.80441,9.15656 2.89234,-0.57847 6.51928,-0.41491 8.64786,-2.54349 2.06957,-2.06957 2.69652,-5.90174 4.06958,-8.64786 5.01279,-10.02557 -19.82216,-1.00035 -19.8392,-1.01739 -0.65035,-0.65035 -0.70288,-3.63471 -1.01739,-4.57827 -0.57279,-1.71837 -3.51106,-6.20403 -2.54349,-8.13916 2.25557,-4.51116 5.16322,-10.02146 2.54349,-15.26092 -1.89751,-3.795 -7.12775,-4.05464 -9.15656,1.01739"
         id="path54241"
         inkscape:connector-curvature="0" />
      <path
         style="fill:#6f916f;stroke:#000000;stroke-width:0.60489178px;stroke-linecap:butt;stroke-linejoin:miter;stroke-opacity:1"
         d="m 613.93071,582.36545 c -6.31155,-3.15043 -15.14404,-1.13427 -19.8392,3.56088 -1.6053,1.60531 -3.82245,18.03708 -3.05219,20.3479 1.94238,5.82711 2.90848,14.09982 6.61307,17.80441 1.1572,1.1572 7.47145,-0.62526 8.64786,-1.0174 1.8331,-0.61103 6.81279,0.30897 8.13916,-1.01739 1.76007,-1.76008 1.94117,-12.76424 -1.0174,-14.24353 -4.06901,-2.0345 -10.43542,4.31681 -12.71743,2.03479 -0.0738,-0.0738 -0.5087,-1.90183 -0.5087,-2.03479 0,-4.58283 12.50273,0.0793 8.64785,-7.63046 -0.58603,-1.17207 -4.7524,-3.72817 -6.10436,-3.05218 -0.29496,0.14747 -1.68027,1.37192 -2.03479,1.01739 -0.11004,-0.11004 -0.0803,-1.87422 0,-2.03479 0.62968,-1.25935 1.9677,-2.4764 2.54348,-3.05218 0.72566,-0.72566 21.12092,-0.24437 10.68265,-10.68265 z"
         id="path54243"
         inkscape:connector-curvature="0" />
      <path
         style="fill:#6f916f;stroke:#000000;stroke-width:0.60489178px;stroke-linecap:butt;stroke-linejoin:miter;stroke-opacity:1"
         d="m 651.06562,583.38285 c 0.71593,-2.15726 -1.84719,-2.03479 -6.61307,-2.03479 -3.09551,0 -6.25384,1.06722 -9.15655,2.03479 -2.64132,0.88044 -7.12176,3.47021 -7.12176,6.61306 0,1.08886 -1.0174,3.04004 -1.0174,4.06958 0,5.71609 20.55585,5.98922 15.76962,20.3479 -0.59709,1.79125 -1.67086,2.87021 -3.05218,3.56088 -4.383,2.1915 -13.33955,-4.46487 -16.27832,-1.5261 -2.84413,2.84413 0.17132,8.36584 4.06958,9.66526 4.93186,1.64395 13.9917,3.36948 19.3305,2.03479 3.19551,-0.79888 4.54181,-3.52443 6.61306,-5.59568 4.53943,-4.53943 8.62212,-9.20802 5.08698,-16.27831 -3.53983,-7.07965 -15.25625,-7.11242 -17.80441,-12.20874 -0.99937,-1.99874 8.48592,-1.36416 9.66525,-2.54348 0.64481,-0.64481 4.05367,-4.3939 3.05218,-5.59568 -1.24737,-1.49684 -7.14862,-4.09643 -4.57827,-1.52608"
         id="path54245"
         inkscape:connector-curvature="0" />
      <path
         style="fill:#6f916f;stroke:#000000;stroke-width:0.60489178px;stroke-linecap:butt;stroke-linejoin:miter;stroke-opacity:1"
         d="m 704.47884,589.99591 c 0.0601,7.19746 -2.24417,14.69328 -1.52609,21.87399 0.22276,2.22764 0.7417,4.40753 1.01739,6.61306 0.35466,2.83725 -1.78248,14.49584 0,16.27833 2.94583,2.94582 16.31748,-0.0783 17.80441,-3.05219 1.80809,-3.61619 -1.46009,-10.28662 -2.03479,-13.73483 -0.52245,-3.13468 0.52244,-6.53058 0,-9.66525 -0.84332,-5.05994 -3.28948,-19.0591 -6.10437,-21.87398 -0.51661,-0.51662 -8.10661,0.96315 -8.13916,1.01739 -0.4698,0.78301 -0.67826,1.69565 -1.01739,2.54348 z"
         id="path54247"
         inkscape:connector-curvature="0" />
      <path
         style="fill:#6f916f;stroke:#000000;stroke-width:0.60489178px;stroke-linecap:butt;stroke-linejoin:miter;stroke-opacity:1"
         d="m 736.01807,629.16561 c -2.35027,-8.10696 -8.89469,-40.95764 -4.06957,-45.78276 0.80339,-0.8034 3.92429,-0.94475 5.08697,-1.5261 8.26486,-4.13242 12.11878,3.88966 15.26092,10.17395 0.52011,1.04022 4.65726,8.13916 4.57828,8.13916 -0.5087,0 0,-1.01739 0,-1.52609 0,-2.03479 0,-4.06958 0,-6.10437 0,-5.95561 -1.36107,-11.27385 4.57824,-14.24353 0.944,-0.47197 3.41903,-1.08833 4.57831,-0.50869 1.29223,0.6461 2.40166,1.38429 3.05216,2.03479 1.76768,1.76764 1.01743,22.17848 1.01743,25.94356 0,1.57384 -0.63199,16.52485 -1.01743,17.29571 -1.08396,2.16794 -17.41032,-12.5204 -21.87396,-14.75222 -0.79359,-0.39679 -3.4881,-4.65106 -4.06958,-4.06958 -0.23319,0.23319 4.31151,17.27087 5.08697,18.8218 0.59191,1.18381 0.73075,4.80033 1.52609,5.59567 0.37917,0.37917 1.04492,1.52609 0.5087,1.52609 -1.34758,0 -5.57297,-1.53744 -7.63046,-0.50869 -2.50577,1.25288 -4.34609,0.85149 -6.61307,-0.5087 z"
         id="path54249"
         inkscape:connector-curvature="0" />
      <path
         style="fill:#6f916f;stroke:#000000;stroke-width:0.71503365px;stroke-linecap:butt;stroke-linejoin:miter;stroke-opacity:1"
         d="m 414.26275,657.1179 c -1.67326,0.0232 -3.43378,0.22345 -4.96055,0.22345 -7.33698,0 -15.29091,1.38843 -22.23307,0 -3.40728,0.24889 -11.90151,7.94068 -9.0273,10.81488 1.61063,1.61063 4.55039,1.29401 6.61406,1.80993 3.89818,0.97455 8.24424,0.19497 12.60247,-0.96083 0.15359,2.93462 0.62565,5.8738 0.62565,8.78151 l 0,12.0215 c 0,4.09597 5.08829,10.87222 7.82068,5.40744 3.20553,-6.41105 5.47644,-21.43669 1.43007,-28.91417 0.94472,-0.21621 1.86726,-0.4072 2.77075,-0.53627 5.82062,-0.83152 36.63015,-1.36686 13.22813,-7.21737 -1.96777,-0.49194 -3.9632,-0.79712 -6.01076,-1.20662 -0.89059,-0.17813 -1.85617,-0.23737 -2.86013,-0.22345 z"
         id="path54251"
         inkscape:connector-curvature="0" />
      <path
         style="fill:#6f916f;stroke:#000000;stroke-width:0.71503365px;stroke-linecap:butt;stroke-linejoin:miter;stroke-opacity:1"
         d="m 441.18239,660.34399 c -1.25137,3.29391 -3.00661,7.16483 -3.00661,10.82383 0,3.03724 1.24041,6.42573 0.60132,9.62117 -0.71665,3.58325 -3.10837,19.74193 -0.60132,22.24898 0.45958,0.45958 2.65075,0.47859 3.60794,0 11.90839,-5.9542 -2.11023,-16.08261 4.20926,-19.24236 1.7665,-0.88324 5.86136,-0.60132 7.81721,-0.60132 1.57121,0 8.25465,-1.96785 9.62118,-0.60133 1.50214,1.50214 -4.38623,15.28048 -2.4053,19.24236 1.04052,2.08102 9.32851,-1.5113 10.22251,-2.40529 3.32728,-3.32729 0.87264,-37.01075 -3.00662,-40.89002 -0.6475,-0.64749 -2.34862,-0.60132 -3.60794,-0.60132 -8.58592,0 -4.38455,17.01234 -6.01324,18.64104 -1.2683,1.2683 -3.4329,1.20264 -6.01324,1.20264 -1.73306,0 -3.93521,0.27405 -4.81058,-0.60132 -1.06372,-1.06372 1.49438,-17.14665 0.60132,-18.03971 -1.96311,-1.96311 -6.06141,-4.56973 -7.21589,1.20265 z"
         id="path54256"
         inkscape:connector-curvature="0" />
      <path
         style="fill:#6f916f;stroke:#000000;stroke-width:0.71503365px;stroke-linecap:butt;stroke-linejoin:miter;stroke-opacity:1"
         d="m 510.93593,657.33737 c -6.99782,1.30625 -21.01833,-3.0346 -25.85691,1.80397 -5.02049,5.02049 -1.80397,16.873 -1.80397,23.45162 0,4.33721 -0.14286,15.49156 3.00662,18.64103 1.61202,1.61203 16.61121,2.63115 18.03971,1.20265 2.62743,-2.62744 8.60985,-8.32287 1.20264,-12.02647 -1.04765,-0.52382 -2.4917,-0.0432 -3.60793,-0.60132 -1.52976,-0.76489 -7.6813,3.14252 -9.62118,1.20264 -0.98347,-0.98345 -1.22506,-3.02902 -2.4053,-4.20926 -0.38142,-0.38143 0.25033,-1.90464 0,-2.4053 -3.8205,-7.641 14.46897,1.27706 10.2225,-7.21588 -1.72773,-3.45546 -9.64846,-2.43257 -11.42515,-4.20927 -3.0507,-3.0507 6.91906,-6.61455 9.01986,-6.61455 2.93221,0 16.59322,0.11364 14.43177,-4.20927 -1.31174,-2.62347 -2.0829,-0.40937 -1.20266,-4.81059 z"
         id="path54258"
         inkscape:connector-curvature="0" />
      <path
         style="fill:#00aad4;stroke:#000000;stroke-width:0.71503365px;stroke-linecap:butt;stroke-linejoin:miter;stroke-opacity:1"
         d="m 566.83305,651.59873 c -7.91634,-0.13663 -9.47972,7.55255 -15.61901,7.55255 -1.96885,5.12353 -0.1875,48.50183 0.60331,49.29263 0.42519,0.4252 3.55524,0 4.22316,0 10.95721,0 22.5447,-3.77447 28.84714,-13.22813 2.45625,-3.68436 -0.31291,-10.54683 -2.9942,-13.22812 -1.38957,-1.38957 -2.78067,-2.39993 -3.888,-3.08358 0.43211,0.18586 0.90178,0.28037 1.47476,0.0894 12.1417,-4.04723 2.84909,-22.33135 -6.01075,-25.87528 -2.63778,-1.05511 -4.80956,-1.48791 -6.63641,-1.51945 z m 0.75973,11.15006 c 0.98913,-0.0157 1.97214,0.14815 2.88248,0.60331 7.96719,3.9836 -16.65347,17.57664 -7.82068,0.60331 1.59422,-0.6377 3.28964,-1.18043 4.9382,-1.20662 z m 8.28992,15.03805 c 0.448,0 0.899,0.36756 1.40772,0.71503 -0.8498,-0.47852 -1.41186,-0.71503 -1.40772,-0.71503 z m -7.3291,7.95475 c 4.90915,-0.16113 8.74015,5.04659 6.12248,7.66427 -7.50565,7.50564 -18.61672,6.55579 -9.63061,-6.61407 1.18271,-0.70962 2.37525,-1.01302 3.50813,-1.0502 z"
         id="path54260"
         inkscape:connector-curvature="0" />
      <path
         style="fill:#00aad4;stroke:#000000;stroke-width:0.71503365px;stroke-linecap:butt;stroke-linejoin:miter;stroke-opacity:1"
         d="m 612.05893,653.72149 c -0.74571,-0.0146 -1.44048,0.11693 -2.05572,0.42455 -4.53412,2.26707 -7.12294,3.50434 -12.22261,7.32909 -3.68823,6.7796 -2.50056,42.07732 0.62566,45.20354 0.30476,0.30477 2.56065,0 3.03889,0 5.48582,0 3.96625,-8.30099 2.45793,-12.82592 -0.81703,-2.45111 0.60331,-6.57839 0.60331,-9.16137 0,-1.58359 2.80531,-5.14945 4.89351,-3.06123 1.95192,1.95192 3.17556,3.80121 4.87117,5.49682 3.85445,3.85445 1.80634,15.88715 11.61929,15.88715 1.8564,0 3.34205,-0.30315 4.26786,-1.22896 0.46429,-0.4643 0.28294,-2.42049 0.60331,-3.06124 3.71803,-7.43605 -6.23595,-14.79401 -9.76468,-18.32274 -1.20506,-1.20506 5.3292,-2.10034 7.3291,-6.10013 3.18366,-6.36731 -9.05851,-20.4387 -16.26702,-20.57956 z m -3.73158,9.20606 c 1.4671,-0.0911 2.65458,0.37986 4.7371,0.37986 7.93322,0 -7.95475,18.61305 -7.95475,4.26786 0,-1.6708 -2.02146,-0.18361 0,-3.66455 1.34983,-0.67492 2.33739,-0.92854 3.21765,-0.98317 z"
         id="path54279"
         inkscape:connector-curvature="0" />
      <path
         style="fill:#00aad4;stroke:#000000;stroke-width:0.71503365px;stroke-linecap:butt;stroke-linejoin:miter;stroke-opacity:1"
         d="m 662.40177,656.4699 c -0.35407,0.019 -0.71416,0.0483 -1.0949,0.11172 -1.54934,0.25822 -3.26488,0.79107 -4.64772,1.296 l 1.58648,-0.67034 c -8.5154,-3.30827 -18.86727,13.63515 -20.15501,21.36163 -1.20752,7.24504 -1.55171,13.82896 1.22897,20.78066 0.78559,1.96399 3.06365,3.69412 3.66455,5.49682 0.43295,1.29886 0.87674,2.88513 2.43558,3.66455 8.24655,4.12328 25.62611,-2.28801 28.10976,-12.22261 1.14416,-4.57663 0.13852,-8.84414 -0.62566,-13.42922 -1.1258,-6.75479 0.47381,-26.97818 -10.50205,-26.38921 z m -5.36275,11.73102 c 2.70997,0.67749 5.65977,0.95155 6.70344,3.03889 2.9717,5.94341 -0.57345,18.29289 -4.26786,21.98729 -0.70125,0.70127 -2.533,0.66319 -3.66455,1.22896 -7.52393,3.76197 -8.356,-9.76753 -6.72578,-14.65819 0.83852,-2.51553 1.3364,-4.48273 2.45792,-6.72578 2.33289,-4.66576 4.4727,-4.70234 5.49683,-4.87117 z"
         id="path54284"
         inkscape:connector-curvature="0" />
      <path
         style="fill:#00aad4;stroke:#000000;stroke-width:0.71503365px;stroke-linecap:butt;stroke-linejoin:miter;stroke-opacity:1"
         d="m 679.6302,659.0303 c -1.53118,14.13554 8.55085,26.55949 8.55085,39.70035 0,0.43471 2.28409,7.4883 4.88619,4.8862 1.80687,-1.80687 3.92394,-18.32324 4.8862,-18.32324 0.0538,0 2.72143,9.10751 3.05387,9.7724 1.24055,2.48109 6.87128,9.61962 9.16162,7.32929 5.88153,-5.88152 4.8862,-25.69268 4.8862,-34.81416 0,-2.02131 -1.14919,-3.95408 -0.61078,-6.10774 0.50941,-2.03761 1.77778,-9.82695 0,-11.60472 -3.48724,-3.48725 -9.06735,6.95224 -9.77239,9.77239 -0.36255,1.4502 1.27375,12.16329 1.22155,12.21549 -0.15069,0.15069 -0.96306,2.7016 -1.22155,2.4431 -1.13009,-1.13008 -4.49457,-16.09929 -7.94007,-19.54478 -1.92342,-1.92343 -9.30658,5.81782 -7.32929,9.77239 0.33282,0.66564 3.06181,7.94007 3.05387,7.94007 -1.50554,0 -4.17797,-18.37196 -9.16162,-15.88014 -1.31313,0.65657 -2.40574,1.68776 -3.66465,2.4431 z"
         id="path54302"
         inkscape:connector-curvature="0" />
      <path
         style="fill:#00aad4;stroke:#000000;stroke-width:0.71503365px;stroke-linecap:butt;stroke-linejoin:miter;stroke-opacity:1"
         d="m 740.09689,651.09023 c -5.57928,-0.20901 -15.24268,3.00051 -17.71247,7.94007 -3.49903,6.99808 6.04538,11.17675 10.99395,12.82626 3.63327,1.21109 6.35098,6.83746 7.3293,9.7724 0.76611,2.29837 -1.26777,3.75709 -1.83232,4.88619 -3.62582,7.25163 -25.16437,4.76361 -14.6586,15.26938 3.03223,3.03223 19.97338,-7.14712 22.59866,-9.7724 5.44108,-5.44108 5.20885,-13.72517 0,-18.93402 -1.35028,-1.35028 -2.30258,-4.22858 -4.27542,-4.88619 -2.4446,-0.81487 -9.5921,-1.04126 -10.99395,-2.4431 -1.80342,-1.80342 13.96097,-8.77722 11.60473,-11.60472 -0.92162,-1.10593 -2.03592,-2.03591 -3.05388,-3.05387 z"
         id="path54304"
         inkscape:connector-curvature="0" />
      <path
         style="fill:#00aad4;stroke:#000000;stroke-width:0.71503365px;stroke-linecap:butt;stroke-linejoin:miter;stroke-opacity:1"
         d="m 773.07872,651.09023 c -0.81436,-0.61078 -3.05387,-1.01796 -2.4431,-1.83232 0.61078,-0.81437 3.1629,1.11252 2.4431,1.83232 -1.04805,1.04805 -2.79325,-1.22155 -4.27542,-1.22155 -7.16399,0 -12.21549,2.6645 -12.21549,9.77239 0,5.8033 1.69826,11.0685 3.05387,16.49092 1.70019,6.80077 0.38203,27.35751 10.99394,23.82021 2.5124,-0.83747 7.97167,-0.64238 9.7724,-2.4431 0.78392,-0.78392 0.63436,-2.46669 1.22155,-3.05387 0.30476,-0.30477 0,-2.57564 0,-3.05387 0,-1.06409 1.01984,-3.86636 0,-4.88621 -2.25045,-2.25044 -10.05005,2.16545 -11.60472,0.61078 -0.40718,-0.40718 0.40718,-2.03592 0,-2.4431 -1.3187,-1.3187 -3.05387,-3.1212 -3.05387,-5.49697 0,-2.26593 7.96935,-3.69393 9.16161,-4.8862 0.42011,-0.4201 -2.37594,-2.37594 -3.05387,-3.05387 -0.66512,-0.66512 -2.01255,-4.27542 -2.4431,-4.27542 -2.88773,0 -4.64204,2.32064 -6.10774,-0.61078 -0.24832,-0.49662 -0.96887,-0.50535 -0.61078,-1.22155 0.70899,-1.41799 0.9249,-2.75722 1.83233,-3.66464 0.38742,-0.38742 1.93457,0.25426 2.4431,0 7.0139,-3.50695 15.47764,-4.0283 4.88619,-10.38317 z"
         id="path54306"
         inkscape:connector-curvature="0" />
      <path
         style="fill:#00aad4;stroke:#000000;stroke-width:0.71503365px;stroke-linecap:butt;stroke-linejoin:miter;stroke-opacity:1"
         d="m 795.19692,644.71653 c -3.97588,0.0801 -7.51233,1.6491 -8.69213,6.36827 -1.92126,4.78157 -0.24059,11.29296 0.62566,16.49047 0.70515,4.23091 0.37807,8.68313 1.20662,12.82591 0.74675,3.73377 0.83705,7.14859 2.45793,10.39033 0.57954,1.15909 -0.881,4.61582 0,5.49682 1.23035,1.23036 3.0401,0.0211 3.66454,-0.6033 1.01796,-1.01796 3.87556,-0.21101 4.89351,-1.22897 2.75795,-2.75794 -7.83585,-14.77708 -6.12247,-16.49046 2.04467,-2.04466 4.28816,0.2915 7.32909,-1.22897 0.66088,-0.33043 4.10902,-2.61676 4.89352,-1.83227 0.54446,0.54446 0.27898,1.80927 0.60331,2.45793 1.58917,3.17835 4.35757,6.95028 5.49682,10.36799 2.60358,7.81077 3.53858,9.84999 9.78702,6.72578 2.21494,-1.10747 4.85667,-0.57434 6.10013,-3.06124 0.64956,-1.29912 -9.99368,-12.54658 -12.22261,-14.03253 -0.76967,-0.51312 -1.73467,-0.98977 -2.74841,-1.45241 -0.92238,-1.40023 -2.64703,-3.25162 -4.17847,-4.82648 0.39598,-0.17869 0.7262,-0.34634 0.82675,-0.4469 1.70888,-1.70887 2.43559,-6.18847 2.43559,-9.16137 0,-2.68221 -5.26201,-14.37136 -7.93241,-15.26149 -2.33158,-0.7772 -5.04333,-1.4257 -7.61958,-1.49711 -0.26835,-0.007 -0.53935,-0.005 -0.80441,0 z m -0.67034,10.30096 c 1.73338,-0.0199 1.61123,0.89499 4.20082,2.18979 1.1074,0.5537 3.16109,1.42865 3.66455,2.43558 0.69444,1.38888 -10.39033,17.1694 -10.39033,-0.60331 0,-2.03388 -1.95504,-0.28706 0,-3.66455 1.16096,-0.23219 1.94717,-0.35088 2.52496,-0.35751 z"
         id="path54308"
         inkscape:connector-curvature="0" />
    </g>
  </g>
</svg>
